<svg xmlns="http://www.w3.org/2000/svg" xmlns:xlink="http://www.w3.org/1999/xlink" id="Capa_1" x="0px" y="0px" viewBox="0 0 2122 2122" style="enable-background:new 0 0 2122 2122;" xml:space="preserve"><linearGradient id="SVGID_1_" gradientUnits="userSpaceOnUse" x1="1060.6582" y1="55.5995" x2="1060.6582" y2="1829.2448">	<stop offset="0" style="stop-color:#263F91"></stop>	<stop offset="1" style="stop-color:#041132"></stop></linearGradient><rect style="fill:url(#SVGID_1_);" width="2121.316" height="2121.309"></rect><g style="opacity:0.4;">	<g>		<g>							<linearGradient id="SVGID_00000088833532485902428260000006280150028044364684_" gradientUnits="userSpaceOnUse" x1="49.5293" y1="116.3941" x2="49.5293" y2="1995.6147">				<stop offset="0" style="stop-color:#5DC8DA"></stop>				<stop offset="1" style="stop-color:#000000"></stop>			</linearGradient>							<rect x="47.035" style="fill:url(#SVGID_00000088833532485902428260000006280150028044364684_);" width="4.988" height="2121.309"></rect>		</g>		<g>							<linearGradient id="SVGID_00000115511988052524431760000008894639004348087431_" gradientUnits="userSpaceOnUse" x1="112.7246" y1="116.3941" x2="112.7246" y2="1995.6147">				<stop offset="0" style="stop-color:#5DC8DA"></stop>				<stop offset="1" style="stop-color:#000000"></stop>			</linearGradient>							<rect x="110.23" style="fill:url(#SVGID_00000115511988052524431760000008894639004348087431_);" width="4.988" height="2121.309"></rect>		</g>		<g>							<linearGradient id="SVGID_00000009560757099578385110000010510422043462758840_" gradientUnits="userSpaceOnUse" x1="175.92" y1="116.3941" x2="175.92" y2="1995.6147">				<stop offset="0" style="stop-color:#5DC8DA"></stop>				<stop offset="1" style="stop-color:#000000"></stop>			</linearGradient>							<rect x="173.426" style="fill:url(#SVGID_00000009560757099578385110000010510422043462758840_);" width="4.988" height="2121.309"></rect>		</g>		<g>							<linearGradient id="SVGID_00000072255059755749414850000008235317260416700592_" gradientUnits="userSpaceOnUse" x1="239.1152" y1="116.3941" x2="239.1152" y2="1995.6147">				<stop offset="0" style="stop-color:#5DC8DA"></stop>				<stop offset="1" style="stop-color:#000000"></stop>			</linearGradient>							<rect x="236.621" style="fill:url(#SVGID_00000072255059755749414850000008235317260416700592_);" width="4.988" height="2121.309"></rect>		</g>		<g>							<linearGradient id="SVGID_00000150063041423510165480000014164558569476611752_" gradientUnits="userSpaceOnUse" x1="302.3105" y1="116.3941" x2="302.3105" y2="1995.6147">				<stop offset="0" style="stop-color:#5DC8DA"></stop>				<stop offset="1" style="stop-color:#000000"></stop>			</linearGradient>							<rect x="299.816" style="fill:url(#SVGID_00000150063041423510165480000014164558569476611752_);" width="4.988" height="2121.309"></rect>		</g>		<g>							<linearGradient id="SVGID_00000082355359121649251470000012723967175427057333_" gradientUnits="userSpaceOnUse" x1="365.5078" y1="116.3941" x2="365.5078" y2="1995.6147">				<stop offset="0" style="stop-color:#5DC8DA"></stop>				<stop offset="1" style="stop-color:#000000"></stop>			</linearGradient>							<rect x="363.012" style="fill:url(#SVGID_00000082355359121649251470000012723967175427057333_);" width="4.992" height="2121.309"></rect>		</g>		<g>							<linearGradient id="SVGID_00000079447310977337606260000006364697379008188072_" gradientUnits="userSpaceOnUse" x1="428.705" y1="116.3941" x2="428.705" y2="1995.6147">				<stop offset="0" style="stop-color:#5DC8DA"></stop>				<stop offset="1" style="stop-color:#000000"></stop>			</linearGradient>							<rect x="426.211" style="fill:url(#SVGID_00000079447310977337606260000006364697379008188072_);" width="4.988" height="2121.309"></rect>		</g>		<g>							<linearGradient id="SVGID_00000077294484004777469550000015551618482109754020_" gradientUnits="userSpaceOnUse" x1="491.8945" y1="116.3941" x2="491.8945" y2="1995.6147">				<stop offset="0" style="stop-color:#5DC8DA"></stop>				<stop offset="1" style="stop-color:#000000"></stop>			</linearGradient>							<rect x="489.398" style="fill:url(#SVGID_00000077294484004777469550000015551618482109754020_);" width="4.992" height="2121.309"></rect>		</g>		<g>							<linearGradient id="SVGID_00000090995886878577860890000011855898774711627413_" gradientUnits="userSpaceOnUse" x1="555.0957" y1="116.3941" x2="555.0957" y2="1995.6147">				<stop offset="0" style="stop-color:#5DC8DA"></stop>				<stop offset="1" style="stop-color:#000000"></stop>			</linearGradient>							<rect x="552.602" style="fill:url(#SVGID_00000090995886878577860890000011855898774711627413_);" width="4.988" height="2121.309"></rect>		</g>		<g>							<linearGradient id="SVGID_00000095332076979516772760000003121992187850345095_" gradientUnits="userSpaceOnUse" x1="618.291" y1="116.3941" x2="618.291" y2="1995.6147">				<stop offset="0" style="stop-color:#5DC8DA"></stop>				<stop offset="1" style="stop-color:#000000"></stop>			</linearGradient>							<rect x="615.797" style="fill:url(#SVGID_00000095332076979516772760000003121992187850345095_);" width="4.988" height="2121.309"></rect>		</g>		<g>							<linearGradient id="SVGID_00000143599055171508525180000008852516678955084694_" gradientUnits="userSpaceOnUse" x1="681.4863" y1="116.3941" x2="681.4863" y2="1995.6147">				<stop offset="0" style="stop-color:#5DC8DA"></stop>				<stop offset="1" style="stop-color:#000000"></stop>			</linearGradient>							<rect x="678.992" style="fill:url(#SVGID_00000143599055171508525180000008852516678955084694_);" width="4.988" height="2121.309"></rect>		</g>		<g>							<linearGradient id="SVGID_00000065058586265872377940000015534415775310984616_" gradientUnits="userSpaceOnUse" x1="744.6777" y1="116.3941" x2="744.6777" y2="1995.6147">				<stop offset="0" style="stop-color:#5DC8DA"></stop>				<stop offset="1" style="stop-color:#000000"></stop>			</linearGradient>							<rect x="742.184" style="fill:url(#SVGID_00000065058586265872377940000015534415775310984616_);" width="4.988" height="2121.309"></rect>		</g>		<g>							<linearGradient id="SVGID_00000008126541192010078190000010636901843688999089_" gradientUnits="userSpaceOnUse" x1="807.8789" y1="116.3941" x2="807.8789" y2="1995.6147">				<stop offset="0" style="stop-color:#5DC8DA"></stop>				<stop offset="1" style="stop-color:#000000"></stop>			</linearGradient>							<rect x="805.383" style="fill:url(#SVGID_00000008126541192010078190000010636901843688999089_);" width="4.992" height="2121.309"></rect>		</g>		<g>							<linearGradient id="SVGID_00000053506926932719689720000013034040627445043594_" gradientUnits="userSpaceOnUse" x1="871.0742" y1="116.3941" x2="871.0742" y2="1995.6147">				<stop offset="0" style="stop-color:#5DC8DA"></stop>				<stop offset="1" style="stop-color:#000000"></stop>			</linearGradient>							<rect x="868.578" style="fill:url(#SVGID_00000053506926932719689720000013034040627445043594_);" width="4.992" height="2121.309"></rect>		</g>		<g>							<linearGradient id="SVGID_00000015316190281168974040000012027487433188373944_" gradientUnits="userSpaceOnUse" x1="934.2714" y1="116.3941" x2="934.2714" y2="1995.6147">				<stop offset="0" style="stop-color:#5DC8DA"></stop>				<stop offset="1" style="stop-color:#000000"></stop>			</linearGradient>							<rect x="931.777" style="fill:url(#SVGID_00000015316190281168974040000012027487433188373944_);" width="4.988" height="2121.309"></rect>		</g>		<g>							<linearGradient id="SVGID_00000181777329525791064520000010631669637497250192_" gradientUnits="userSpaceOnUse" x1="997.4609" y1="116.3941" x2="997.4609" y2="1995.6147">				<stop offset="0" style="stop-color:#5DC8DA"></stop>				<stop offset="1" style="stop-color:#000000"></stop>			</linearGradient>							<rect x="994.965" style="fill:url(#SVGID_00000181777329525791064520000010631669637497250192_);" width="4.992" height="2121.309"></rect>		</g>		<g>							<linearGradient id="SVGID_00000124865357761548625460000007944880290535129018_" gradientUnits="userSpaceOnUse" x1="1060.6621" y1="116.3941" x2="1060.6621" y2="1995.6147">				<stop offset="0" style="stop-color:#5DC8DA"></stop>				<stop offset="1" style="stop-color:#000000"></stop>			</linearGradient>							<rect x="1058.168" style="fill:url(#SVGID_00000124865357761548625460000007944880290535129018_);" width="4.988" height="2121.309"></rect>		</g>		<g>							<linearGradient id="SVGID_00000081621309230653875210000003643316391814200472_" gradientUnits="userSpaceOnUse" x1="1123.8574" y1="116.3941" x2="1123.8574" y2="1995.6147">				<stop offset="0" style="stop-color:#5DC8DA"></stop>				<stop offset="1" style="stop-color:#000000"></stop>			</linearGradient>							<rect x="1121.363" style="fill:url(#SVGID_00000081621309230653875210000003643316391814200472_);" width="4.988" height="2121.309"></rect>		</g>		<g>							<linearGradient id="SVGID_00000005254284475498429380000013803307967243055256_" gradientUnits="userSpaceOnUse" x1="1187.0527" y1="116.3941" x2="1187.0527" y2="1995.6147">				<stop offset="0" style="stop-color:#5DC8DA"></stop>				<stop offset="1" style="stop-color:#000000"></stop>			</linearGradient>							<rect x="1184.559" style="fill:url(#SVGID_00000005254284475498429380000013803307967243055256_);" width="4.988" height="2121.309"></rect>		</g>		<g>							<linearGradient id="SVGID_00000096034371028281693890000007287971962249375673_" gradientUnits="userSpaceOnUse" x1="1250.2441" y1="116.3941" x2="1250.2441" y2="1995.6147">				<stop offset="0" style="stop-color:#5DC8DA"></stop>				<stop offset="1" style="stop-color:#000000"></stop>			</linearGradient>							<rect x="1247.75" style="fill:url(#SVGID_00000096034371028281693890000007287971962249375673_);" width="4.988" height="2121.309"></rect>		</g>		<g>							<linearGradient id="SVGID_00000127754108885022760330000012116658548752052382_" gradientUnits="userSpaceOnUse" x1="1313.4453" y1="116.3941" x2="1313.4453" y2="1995.6147">				<stop offset="0" style="stop-color:#5DC8DA"></stop>				<stop offset="1" style="stop-color:#000000"></stop>			</linearGradient>							<rect x="1310.949" style="fill:url(#SVGID_00000127754108885022760330000012116658548752052382_);" width="4.992" height="2121.309"></rect>		</g>		<g>							<linearGradient id="SVGID_00000162334634240382795260000007837006497710085807_" gradientUnits="userSpaceOnUse" x1="1376.6348" y1="116.3941" x2="1376.6348" y2="1995.6147">				<stop offset="0" style="stop-color:#5DC8DA"></stop>				<stop offset="1" style="stop-color:#000000"></stop>			</linearGradient>							<rect x="1374.141" style="fill:url(#SVGID_00000162334634240382795260000007837006497710085807_);" width="4.988" height="2121.309"></rect>		</g>		<g>							<linearGradient id="SVGID_00000119105934198796735230000004882289492408869548_" gradientUnits="userSpaceOnUse" x1="1439.8379" y1="116.3941" x2="1439.8379" y2="1995.6147">				<stop offset="0" style="stop-color:#5DC8DA"></stop>				<stop offset="1" style="stop-color:#000000"></stop>			</linearGradient>							<rect x="1437.344" style="fill:url(#SVGID_00000119105934198796735230000004882289492408869548_);" width="4.988" height="2121.309"></rect>		</g>		<g>							<linearGradient id="SVGID_00000176757909875872718970000002988885342769683646_" gradientUnits="userSpaceOnUse" x1="1503.0273" y1="116.3941" x2="1503.0273" y2="1995.6147">				<stop offset="0" style="stop-color:#5DC8DA"></stop>				<stop offset="1" style="stop-color:#000000"></stop>			</linearGradient>							<rect x="1500.531" style="fill:url(#SVGID_00000176757909875872718970000002988885342769683646_);" width="4.992" height="2121.309"></rect>		</g>		<g>							<linearGradient id="SVGID_00000176034000521182029610000010827497179046626744_" gradientUnits="userSpaceOnUse" x1="1566.2285" y1="116.3941" x2="1566.2285" y2="1995.6147">				<stop offset="0" style="stop-color:#5DC8DA"></stop>				<stop offset="1" style="stop-color:#000000"></stop>			</linearGradient>							<rect x="1563.734" style="fill:url(#SVGID_00000176034000521182029610000010827497179046626744_);" width="4.988" height="2121.309"></rect>		</g>		<g>							<linearGradient id="SVGID_00000158749200407223968200000003191369187765820310_" gradientUnits="userSpaceOnUse" x1="1629.4199" y1="116.3941" x2="1629.4199" y2="1995.6147">				<stop offset="0" style="stop-color:#5DC8DA"></stop>				<stop offset="1" style="stop-color:#000000"></stop>			</linearGradient>							<rect x="1626.926" style="fill:url(#SVGID_00000158749200407223968200000003191369187765820310_);" width="4.988" height="2121.309"></rect>		</g>		<g>							<linearGradient id="SVGID_00000133502123533106692370000000554996508191208104_" gradientUnits="userSpaceOnUse" x1="1692.6191" y1="116.3941" x2="1692.6191" y2="1995.6147">				<stop offset="0" style="stop-color:#5DC8DA"></stop>				<stop offset="1" style="stop-color:#000000"></stop>			</linearGradient>							<rect x="1690.125" style="fill:url(#SVGID_00000133502123533106692370000000554996508191208104_);" width="4.988" height="2121.309"></rect>		</g>		<g>							<linearGradient id="SVGID_00000079460750976327980940000004436387445006952118_" gradientUnits="userSpaceOnUse" x1="1755.8145" y1="116.3941" x2="1755.8145" y2="1995.6147">				<stop offset="0" style="stop-color:#5DC8DA"></stop>				<stop offset="1" style="stop-color:#000000"></stop>			</linearGradient>							<rect x="1753.32" style="fill:url(#SVGID_00000079460750976327980940000004436387445006952118_);" width="4.988" height="2121.309"></rect>		</g>		<g>							<linearGradient id="SVGID_00000113327199470739983450000000637788556280882834_" gradientUnits="userSpaceOnUse" x1="1819.0117" y1="116.3941" x2="1819.0117" y2="1995.6147">				<stop offset="0" style="stop-color:#5DC8DA"></stop>				<stop offset="1" style="stop-color:#000000"></stop>			</linearGradient>							<rect x="1816.516" style="fill:url(#SVGID_00000113327199470739983450000000637788556280882834_);" width="4.992" height="2121.309"></rect>		</g>		<g>							<linearGradient id="SVGID_00000022551258537220271920000015710208269734576768_" gradientUnits="userSpaceOnUse" x1="1882.209" y1="116.3941" x2="1882.209" y2="1995.6147">				<stop offset="0" style="stop-color:#5DC8DA"></stop>				<stop offset="1" style="stop-color:#000000"></stop>			</linearGradient>							<rect x="1879.715" style="fill:url(#SVGID_00000022551258537220271920000015710208269734576768_);" width="4.988" height="2121.309"></rect>		</g>		<g>							<linearGradient id="SVGID_00000183232792689538090280000015304205144519947655_" gradientUnits="userSpaceOnUse" x1="1945.4043" y1="116.3941" x2="1945.4043" y2="1995.6147">				<stop offset="0" style="stop-color:#5DC8DA"></stop>				<stop offset="1" style="stop-color:#000000"></stop>			</linearGradient>							<rect x="1942.91" style="fill:url(#SVGID_00000183232792689538090280000015304205144519947655_);" width="4.988" height="2121.309"></rect>		</g>		<g>							<linearGradient id="SVGID_00000092427575901280504640000009514408312132747427_" gradientUnits="userSpaceOnUse" x1="2008.5996" y1="116.3941" x2="2008.5996" y2="1995.6147">				<stop offset="0" style="stop-color:#5DC8DA"></stop>				<stop offset="1" style="stop-color:#000000"></stop>			</linearGradient>							<rect x="2006.105" style="fill:url(#SVGID_00000092427575901280504640000009514408312132747427_);" width="4.988" height="2121.309"></rect>		</g>		<g>							<linearGradient id="SVGID_00000162322798085866676020000017430981096623515794_" gradientUnits="userSpaceOnUse" x1="2071.7949" y1="116.3941" x2="2071.7949" y2="1995.6147">				<stop offset="0" style="stop-color:#5DC8DA"></stop>				<stop offset="1" style="stop-color:#000000"></stop>			</linearGradient>							<rect x="2069.301" style="fill:url(#SVGID_00000162322798085866676020000017430981096623515794_);" width="4.988" height="2121.309"></rect>		</g>	</g>	<g>		<g>							<linearGradient id="SVGID_00000122714526715181332440000009066773088798699928_" gradientUnits="userSpaceOnUse" x1="1060.6621" y1="116.385" x2="1060.6621" y2="1995.3395">				<stop offset="0" style="stop-color:#5DC8DA"></stop>				<stop offset="1" style="stop-color:#000000"></stop>			</linearGradient>							<rect y="47.031" style="fill:url(#SVGID_00000122714526715181332440000009066773088798699928_);" width="2121.324" height="4.988"></rect>		</g>		<g>							<linearGradient id="SVGID_00000007420730535198330630000001867793204383728795_" gradientUnits="userSpaceOnUse" x1="1060.6621" y1="116.3937" x2="1060.6621" y2="1995.3104">				<stop offset="0" style="stop-color:#5DC8DA"></stop>				<stop offset="1" style="stop-color:#000000"></stop>			</linearGradient>							<rect y="110.227" style="fill:url(#SVGID_00000007420730535198330630000001867793204383728795_);" width="2121.324" height="4.988"></rect>		</g>		<g>							<linearGradient id="SVGID_00000114064856300455269920000010809158865727324314_" gradientUnits="userSpaceOnUse" x1="1060.6621" y1="116.4021" x2="1060.6621" y2="1995.3566">				<stop offset="0" style="stop-color:#5DC8DA"></stop>				<stop offset="1" style="stop-color:#000000"></stop>			</linearGradient>							<rect y="173.422" style="fill:url(#SVGID_00000114064856300455269920000010809158865727324314_);" width="2121.324" height="4.988"></rect>		</g>		<g>							<linearGradient id="SVGID_00000072269512835665089550000017990067045355954084_" gradientUnits="userSpaceOnUse" x1="1060.6621" y1="116.4106" x2="1060.6621" y2="1995.365">				<stop offset="0" style="stop-color:#5DC8DA"></stop>				<stop offset="1" style="stop-color:#000000"></stop>			</linearGradient>							<rect y="236.617" style="fill:url(#SVGID_00000072269512835665089550000017990067045355954084_);" width="2121.324" height="4.988"></rect>		</g>		<g>							<linearGradient id="SVGID_00000060709170112213129330000000002656537137265798_" gradientUnits="userSpaceOnUse" x1="1060.6621" y1="116.4196" x2="1060.6621" y2="1995.374">				<stop offset="0" style="stop-color:#5DC8DA"></stop>				<stop offset="1" style="stop-color:#000000"></stop>			</linearGradient>							<rect y="299.813" style="fill:url(#SVGID_00000060709170112213129330000000002656537137265798_);" width="2121.324" height="4.988"></rect>		</g>		<g>							<linearGradient id="SVGID_00000121970727118728014260000003880838242532777400_" gradientUnits="userSpaceOnUse" x1="1060.6621" y1="116.4281" x2="1060.6621" y2="1995.3826">				<stop offset="0" style="stop-color:#5DC8DA"></stop>				<stop offset="1" style="stop-color:#000000"></stop>			</linearGradient>							<rect y="363.008" style="fill:url(#SVGID_00000121970727118728014260000003880838242532777400_);" width="2121.324" height="4.988"></rect>		</g>		<g>							<linearGradient id="SVGID_00000106827583633715855510000006432525468912534179_" gradientUnits="userSpaceOnUse" x1="1060.6621" y1="116.4367" x2="1060.6621" y2="1995.391">				<stop offset="0" style="stop-color:#5DC8DA"></stop>				<stop offset="1" style="stop-color:#000000"></stop>			</linearGradient>							<rect y="426.203" style="fill:url(#SVGID_00000106827583633715855510000006432525468912534179_);" width="2121.324" height="4.988"></rect>		</g>		<g>							<linearGradient id="SVGID_00000040558371729985081180000005099338801287718811_" gradientUnits="userSpaceOnUse" x1="1060.6621" y1="116.1536" x2="1060.6621" y2="1996.577">				<stop offset="0" style="stop-color:#5DC8DA"></stop>				<stop offset="1" style="stop-color:#000000"></stop>			</linearGradient>							<rect y="489.398" style="fill:url(#SVGID_00000040558371729985081180000005099338801287718811_);" width="2121.324" height="4.992"></rect>		</g>		<g>							<linearGradient id="SVGID_00000062161298401596091920000008735517741951674279_" gradientUnits="userSpaceOnUse" x1="1060.6621" y1="116.4664" x2="1060.6621" y2="1995.3832">				<stop offset="0" style="stop-color:#5DC8DA"></stop>				<stop offset="1" style="stop-color:#000000"></stop>			</linearGradient>							<rect y="552.598" style="fill:url(#SVGID_00000062161298401596091920000008735517741951674279_);" width="2121.324" height="4.988"></rect>		</g>		<g>							<linearGradient id="SVGID_00000132055935037971706730000014223312092727716537_" gradientUnits="userSpaceOnUse" x1="1060.6621" y1="116.4762" x2="1060.6621" y2="1995.3929">				<stop offset="0" style="stop-color:#5DC8DA"></stop>				<stop offset="1" style="stop-color:#000000"></stop>			</linearGradient>							<rect y="615.793" style="fill:url(#SVGID_00000132055935037971706730000014223312092727716537_);" width="2121.324" height="4.988"></rect>		</g>		<g>							<linearGradient id="SVGID_00000121241731138451790330000012585535398597217920_" gradientUnits="userSpaceOnUse" x1="1060.6621" y1="116.4747" x2="1060.6621" y2="1995.4291">				<stop offset="0" style="stop-color:#5DC8DA"></stop>				<stop offset="1" style="stop-color:#000000"></stop>			</linearGradient>							<rect y="678.988" style="fill:url(#SVGID_00000121241731138451790330000012585535398597217920_);" width="2121.324" height="4.988"></rect>		</g>		<g>							<linearGradient id="SVGID_00000101061089724570964930000015332374635377426875_" gradientUnits="userSpaceOnUse" x1="1060.6621" y1="116.4832" x2="1060.6621" y2="1995.4375">				<stop offset="0" style="stop-color:#5DC8DA"></stop>				<stop offset="1" style="stop-color:#000000"></stop>			</linearGradient>							<rect y="742.184" style="fill:url(#SVGID_00000101061089724570964930000015332374635377426875_);" width="2121.324" height="4.988"></rect>		</g>		<g>							<linearGradient id="SVGID_00000039107025208677611310000011702402859635453601_" gradientUnits="userSpaceOnUse" x1="1060.6621" y1="116.4917" x2="1060.6621" y2="1995.446">				<stop offset="0" style="stop-color:#5DC8DA"></stop>				<stop offset="1" style="stop-color:#000000"></stop>			</linearGradient>							<rect y="805.379" style="fill:url(#SVGID_00000039107025208677611310000011702402859635453601_);" width="2121.324" height="4.988"></rect>		</g>		<g>							<linearGradient id="SVGID_00000103241640274860470770000011396639254348853931_" gradientUnits="userSpaceOnUse" x1="1060.6621" y1="116.5002" x2="1060.6621" y2="1995.4546">				<stop offset="0" style="stop-color:#5DC8DA"></stop>				<stop offset="1" style="stop-color:#000000"></stop>			</linearGradient>							<rect y="868.574" style="fill:url(#SVGID_00000103241640274860470770000011396639254348853931_);" width="2121.324" height="4.988"></rect>		</g>		<g>							<linearGradient id="SVGID_00000031191740213765409790000000817175605121114017_" gradientUnits="userSpaceOnUse" x1="1060.6621" y1="115.8713" x2="1060.6621" y2="1996.2947">				<stop offset="0" style="stop-color:#5DC8DA"></stop>				<stop offset="1" style="stop-color:#000000"></stop>			</linearGradient>							<rect y="931.769" style="fill:url(#SVGID_00000031191740213765409790000000817175605121114017_);" width="2121.324" height="4.992"></rect>		</g>		<g>							<linearGradient id="SVGID_00000140715681481952369010000016661000474416013184_" gradientUnits="userSpaceOnUse" x1="1060.6621" y1="115.8304" x2="1060.6621" y2="1996.2538">				<stop offset="0" style="stop-color:#5DC8DA"></stop>				<stop offset="1" style="stop-color:#000000"></stop>			</linearGradient>							<rect y="994.965" style="fill:url(#SVGID_00000140715681481952369010000016661000474416013184_);" width="2121.324" height="4.992"></rect>		</g>		<g>							<linearGradient id="SVGID_00000016778100898219192200000009502642954474936207_" gradientUnits="userSpaceOnUse" x1="1060.6621" y1="116.5486" x2="1060.6621" y2="1995.4653">				<stop offset="0" style="stop-color:#5DC8DA"></stop>				<stop offset="1" style="stop-color:#000000"></stop>			</linearGradient>							<rect y="1058.164" style="fill:url(#SVGID_00000016778100898219192200000009502642954474936207_);" width="2121.324" height="4.988"></rect>		</g>		<g>							<linearGradient id="SVGID_00000036945204042645269420000013950611603883369892_" gradientUnits="userSpaceOnUse" x1="1060.6621" y1="116.5336" x2="1060.6621" y2="1995.4974">				<stop offset="0" style="stop-color:#5DC8DA"></stop>				<stop offset="1" style="stop-color:#000000"></stop>			</linearGradient>							<rect y="1121.359" style="fill:url(#SVGID_00000036945204042645269420000013950611603883369892_);" width="2121.324" height="4.988"></rect>		</g>		<g>							<linearGradient id="SVGID_00000131340490457755398410000009502103820953136800_" gradientUnits="userSpaceOnUse" x1="1060.6621" y1="116.5523" x2="1060.6621" y2="1995.4978">				<stop offset="0" style="stop-color:#5DC8DA"></stop>				<stop offset="1" style="stop-color:#000000"></stop>			</linearGradient>							<rect y="1184.555" style="fill:url(#SVGID_00000131340490457755398410000009502103820953136800_);" width="2121.324" height="4.988"></rect>		</g>		<g>							<linearGradient id="SVGID_00000054976876833639809070000015969986145412981172_" gradientUnits="userSpaceOnUse" x1="1060.6621" y1="116.5507" x2="1060.6621" y2="1995.5134">				<stop offset="0" style="stop-color:#5DC8DA"></stop>				<stop offset="1" style="stop-color:#000000"></stop>			</linearGradient>							<rect y="1247.75" style="fill:url(#SVGID_00000054976876833639809070000015969986145412981172_);" width="2121.324" height="4.988"></rect>		</g>		<g>							<linearGradient id="SVGID_00000033354169330362877590000002371951118412912543_" gradientUnits="userSpaceOnUse" x1="1060.6621" y1="116.5643" x2="1060.6621" y2="1995.5186">				<stop offset="0" style="stop-color:#5DC8DA"></stop>				<stop offset="1" style="stop-color:#000000"></stop>			</linearGradient>							<rect y="1310.945" style="fill:url(#SVGID_00000033354169330362877590000002371951118412912543_);" width="2121.324" height="4.988"></rect>		</g>		<g>							<linearGradient id="SVGID_00000070829838620474805970000016639431668511881096_" gradientUnits="userSpaceOnUse" x1="1060.6621" y1="116.5728" x2="1060.6621" y2="1995.5271">				<stop offset="0" style="stop-color:#5DC8DA"></stop>				<stop offset="1" style="stop-color:#000000"></stop>			</linearGradient>							<rect y="1374.141" style="fill:url(#SVGID_00000070829838620474805970000016639431668511881096_);" width="2121.324" height="4.988"></rect>		</g>		<g>							<linearGradient id="SVGID_00000112598596150755238190000003640827830586475187_" gradientUnits="userSpaceOnUse" x1="1060.6621" y1="115.5487" x2="1060.6621" y2="1995.972">				<stop offset="0" style="stop-color:#5DC8DA"></stop>				<stop offset="1" style="stop-color:#000000"></stop>			</linearGradient>							<rect y="1437.336" style="fill:url(#SVGID_00000112598596150755238190000003640827830586475187_);" width="2121.324" height="4.992"></rect>		</g>		<g>							<linearGradient id="SVGID_00000044161775650352782900000002005240244466860419_" gradientUnits="userSpaceOnUse" x1="1060.6621" y1="115.5078" x2="1060.6621" y2="1995.9312">				<stop offset="0" style="stop-color:#5DC8DA"></stop>				<stop offset="1" style="stop-color:#000000"></stop>			</linearGradient>							<rect y="1500.531" style="fill:url(#SVGID_00000044161775650352782900000002005240244466860419_);" width="2121.324" height="4.992"></rect>		</g>		<g>							<linearGradient id="SVGID_00000165218886807778824820000007574772877807003029_" gradientUnits="userSpaceOnUse" x1="1060.6621" y1="116.6313" x2="1060.6621" y2="1995.548">				<stop offset="0" style="stop-color:#5DC8DA"></stop>				<stop offset="1" style="stop-color:#000000"></stop>			</linearGradient>							<rect y="1563.73" style="fill:url(#SVGID_00000165218886807778824820000007574772877807003029_);" width="2121.324" height="4.988"></rect>		</g>		<g>							<linearGradient id="SVGID_00000158022400554984810570000010993535189437943948_" gradientUnits="userSpaceOnUse" x1="1060.6621" y1="116.6108" x2="1060.6621" y2="1995.5651">				<stop offset="0" style="stop-color:#5DC8DA"></stop>				<stop offset="1" style="stop-color:#000000"></stop>			</linearGradient>							<rect y="1626.926" style="fill:url(#SVGID_00000158022400554984810570000010993535189437943948_);" width="2121.324" height="4.988"></rect>		</g>		<g>							<linearGradient id="SVGID_00000116199050439630220870000018126429322129653646_" gradientUnits="userSpaceOnUse" x1="1060.6621" y1="116.6193" x2="1060.6621" y2="1995.5736">				<stop offset="0" style="stop-color:#5DC8DA"></stop>				<stop offset="1" style="stop-color:#000000"></stop>			</linearGradient>							<rect y="1690.121" style="fill:url(#SVGID_00000116199050439630220870000018126429322129653646_);" width="2121.324" height="4.988"></rect>		</g>		<g>							<linearGradient id="SVGID_00000146482413012795240090000011366426823856838562_" gradientUnits="userSpaceOnUse" x1="1060.6621" y1="116.6278" x2="1060.6621" y2="1995.5822">				<stop offset="0" style="stop-color:#5DC8DA"></stop>				<stop offset="1" style="stop-color:#000000"></stop>			</linearGradient>							<rect y="1753.316" style="fill:url(#SVGID_00000146482413012795240090000011366426823856838562_);" width="2121.324" height="4.988"></rect>		</g>		<g>							<linearGradient id="SVGID_00000016033543072095914490000007228077560249776829_" gradientUnits="userSpaceOnUse" x1="1060.6621" y1="116.6389" x2="1060.6621" y2="1995.5903">				<stop offset="0" style="stop-color:#5DC8DA"></stop>				<stop offset="1" style="stop-color:#000000"></stop>			</linearGradient>							<rect y="1816.512" style="fill:url(#SVGID_00000016033543072095914490000007228077560249776829_);" width="2121.324" height="4.988"></rect>		</g>		<g>							<linearGradient id="SVGID_00000173882111766076543020000009967848770293552313_" gradientUnits="userSpaceOnUse" x1="1060.6621" y1="116.6426" x2="1060.6621" y2="1995.5992">				<stop offset="0" style="stop-color:#5DC8DA"></stop>				<stop offset="1" style="stop-color:#000000"></stop>			</linearGradient>							<rect y="1879.707" style="fill:url(#SVGID_00000173882111766076543020000009967848770293552313_);" width="2121.324" height="4.988"></rect>		</g>		<g>							<linearGradient id="SVGID_00000111165910614609366060000009521699466256853404_" gradientUnits="userSpaceOnUse" x1="1060.6621" y1="115.226" x2="1060.6621" y2="1995.6493">				<stop offset="0" style="stop-color:#5DC8DA"></stop>				<stop offset="1" style="stop-color:#000000"></stop>			</linearGradient>							<rect y="1942.902" style="fill:url(#SVGID_00000111165910614609366060000009521699466256853404_);" width="2121.324" height="4.992"></rect>		</g>		<g>							<linearGradient id="SVGID_00000109018434410594616130000008632686655721086107_" gradientUnits="userSpaceOnUse" x1="1060.6621" y1="116.7042" x2="1060.6621" y2="1995.6208">				<stop offset="0" style="stop-color:#5DC8DA"></stop>				<stop offset="1" style="stop-color:#000000"></stop>			</linearGradient>							<rect y="2006.102" style="fill:url(#SVGID_00000109018434410594616130000008632686655721086107_);" width="2121.324" height="4.988"></rect>		</g>		<g>							<linearGradient id="SVGID_00000181057718268419165440000003198848137347902114_" gradientUnits="userSpaceOnUse" x1="1060.6621" y1="116.6748" x2="1060.6621" y2="1995.6292">				<stop offset="0" style="stop-color:#5DC8DA"></stop>				<stop offset="1" style="stop-color:#000000"></stop>			</linearGradient>							<rect y="2069.297" style="fill:url(#SVGID_00000181057718268419165440000003198848137347902114_);" width="2121.324" height="4.988"></rect>		</g>	</g></g><g>	<g>		<polyline style="fill:none;stroke:#FFFFFF;stroke-width:5.0555;stroke-miterlimit:10;" points="1048.547,1407.383    413.273,1777.969 666.797,1927.809 669.594,1926.199 439.75,2065.297   "></polyline>		<polyline style="fill:none;stroke:#FFFFFF;stroke-width:5.0555;stroke-miterlimit:10;" points="666.816,1631.348    503.793,1537.094 317.145,1648.266 282.309,1628.125   "></polyline>		<polyline style="fill:none;stroke:#FFFFFF;stroke-width:5.0555;stroke-miterlimit:10;" points="1051.32,1554.008    762.945,1723.996 891.105,1794.875 797.777,1852.074   "></polyline>		<polyline style="fill:none;stroke:#FFFFFF;stroke-width:5.0555;stroke-miterlimit:10;" points="1115.418,1594.301    1339.715,1723.996 1438.633,1666.797 1662.918,1796.504   "></polyline>		<polyline style="fill:none;stroke:#FFFFFF;stroke-width:5.0555;stroke-miterlimit:10;" points="1045.781,1668.395    1339.707,1835.172 1214.328,1907.664 1307.672,1961.648   "></polyline>		<polyline style="fill:none;stroke:#FFFFFF;stroke-width:5.0555;stroke-miterlimit:10;" points="1406.605,1425.918    1689.391,1592.676 1759.063,1555.625 1936.863,1661.664   "></polyline>		<polyline style="fill:none;stroke:#FFFFFF;stroke-width:5.0555;stroke-miterlimit:10;" points="1849.59,1796.504    1564.008,1631.359 1658.129,1574.141   "></polyline>		<polyline style="fill:none;stroke:#FFFFFF;stroke-width:5.0555;stroke-miterlimit:10;" points="170.02,1544.82 317.145,1462.98    407.672,1518.57 666.816,1371.938 733.672,1410.613 829.824,1351.793   "></polyline>		<polyline style="fill:none;stroke:#FFFFFF;stroke-width:5.0555;stroke-miterlimit:10;" points="1304.891,1333.281    1374.547,1370.328 1465.082,1314.742 1726.996,1462.969 1785.508,1425.906 1951.313,1518.555   "></polyline>		<polyline style="fill:none;stroke:#FFFFFF;stroke-width:5.0555;stroke-miterlimit:10;" points="1406.605,1277.695 1625.313,1148    1731.559,1209.426 1843.039,1133.266   "></polyline>		<polyline style="fill:none;stroke:#FFFFFF;stroke-width:5.0555;stroke-miterlimit:10;" points="1240.789,1259.16 1406.59,1166.52    1339.707,1131.07 1467.867,1056.953   "></polyline>		<polyline style="fill:none;stroke:#FFFFFF;stroke-width:5.0555;stroke-miterlimit:10;" points="1086.156,1166.512    1214.328,1092.398 1150.246,1055.34 1307.66,961.086   "></polyline>		<polyline style="fill:none;stroke:#FFFFFF;stroke-width:5.0555;stroke-miterlimit:10;" points="1467.879,979.606    1336.922,1055.336 1246.383,999.75   "></polyline>		<polyline style="fill:none;stroke:#FFFFFF;stroke-width:5.0555;stroke-miterlimit:10;" points="1278.43,870.051 1115.414,961.086    1147.449,979.613 1019.285,1056.961 1159.703,1134.922   "></polyline>		<polyline style="fill:none;stroke:#FFFFFF;stroke-width:5.0555;stroke-miterlimit:10;" points="1101.406,1175.328    765.734,981.223 891.125,908.723 743.441,823.328   "></polyline>		<polyline style="fill:none;stroke:#FFFFFF;stroke-width:5.0555;stroke-miterlimit:10;" points="952.445,1243.836 631.984,1055.34    570.695,1094.012 413.293,1002.992   "></polyline>		<polyline style="fill:none;stroke:#FFFFFF;stroke-width:5.0555;stroke-miterlimit:10;" points="856.289,1370.328    506.602,1168.121 378.406,1239.008 170.02,1121.738   "></polyline>					<line style="fill:none;stroke:#FFFFFF;stroke-width:5.0555;stroke-miterlimit:10;" x1="666.836" y1="1183.43" x2="599.953" y2="1222.094"></line>		<polyline style="fill:none;stroke:#FFFFFF;stroke-width:5.0555;stroke-miterlimit:10;" points="602.734,961.086 762.945,1056.953    693.262,1094.02   "></polyline>		<g>			<path style="fill:#FFFFFF;" d="M189.695,1131.668c-10.641,4.492-28.156,4.313-39.109-0.406c-10.941-4.711-10.941-12,0-16.266    c10.953-4.266,28.469-4.078,39.109,0.41C200.34,1119.898,200.34,1127.18,189.695,1131.668z"></path>		</g>		<g>			<path style="fill:#FFFFFF;" d="M447.918,1011.246c-10.645,4.484-28.148,4.305-39.105-0.41c-10.949-4.715-10.949-12,0.008-16.266    c10.949-4.266,28.453-4.082,39.098,0.41C458.559,999.469,458.559,1006.746,447.918,1011.246z"></path>		</g>		<g>			<path style="fill:#FFFFFF;" d="M619.633,969.316c-10.656,4.488-28.168,4.309-39.121-0.406c-10.957-4.715-10.957-12,0-16.266    c10.965-4.266,28.465-4.086,39.121,0.406C630.262,957.543,630.258,964.824,619.633,969.316z"></path>		</g>		<g>			<path style="fill:#FFFFFF;" d="M768,831.578c-10.641,4.492-28.156,4.313-39.098-0.402c-10.941-4.715-10.941-12,0-16.27    c10.942-4.262,28.457-4.082,39.098,0.41C778.66,819.805,778.66,827.09,768,831.578z"></path>		</g>		<g>			<path style="fill:#FFFFFF;" d="M1298.113,876.672c-10.652,4.492-28.16,4.316-39.113-0.406c-10.953-4.711-10.953-11.996,0-16.262    c10.957-4.266,28.461-4.086,39.113,0.406C1308.754,864.902,1308.754,872.18,1298.113,876.672z"></path>		</g>		<g>			<path style="fill:#FFFFFF;" d="M1324.535,970.938c-10.648,4.496-28.152,4.32-39.113-0.402    c-10.949-4.707-10.949-11.996,0.008-16.266c10.953-4.262,28.457-4.082,39.105,0.406    C1335.176,959.168,1335.176,966.449,1324.535,970.938z"></path>		</g>		<g>			<path style="fill:#FFFFFF;" d="M1483.648,988.254c-10.641,4.492-28.148,4.316-39.102-0.406    c-10.957-4.707-10.957-11.996,0.008-16.258c10.945-4.266,28.453-4.09,39.094,0.402    C1494.297,976.481,1494.297,983.762,1483.648,988.254z"></path>		</g>		<g>			<path style="fill:#FFFFFF;" d="M1487.535,1061.977c-10.645,4.492-28.152,4.313-39.105-0.41    c-10.945-4.707-10.945-11.992,0.008-16.258c10.949-4.266,28.465-4.09,39.098,0.402    C1498.191,1050.207,1498.176,1057.48,1487.535,1061.977z"></path>		</g>		<g>			<path style="fill:#FFFFFF;" d="M1862.703,1137.711c-10.652,4.488-28.16,4.316-39.105-0.406    c-10.945-4.711-10.945-11.996,0.008-16.262c10.949-4.266,28.457-4.09,39.098,0.402    C1873.352,1125.938,1873.352,1133.219,1862.703,1137.711z"></path>		</g>		<g>			<path style="fill:#FFFFFF;" d="M1970.961,1525.188c-10.648,4.492-28.16,4.316-39.102-0.402c-10.953-4.715-10.953-12.004,0-16.266    c10.941-4.27,28.457-4.09,39.102,0.41C1981.602,1513.418,1981.602,1520.695,1970.961,1525.188z"></path>		</g>		<g>			<path style="fill:#FFFFFF;" d="M1956.531,1673.445c-10.652,4.492-28.164,4.316-39.109-0.406c-10.957-4.711-10.957-12,0-16.262    c10.945-4.27,28.457-4.09,39.109,0.406C1967.172,1661.672,1967.16,1668.953,1956.531,1673.445z"></path>		</g>		<g>			<path style="fill:#FFFFFF;" d="M1862.703,1806.367c-10.652,4.492-28.16,4.313-39.105-0.402    c-10.945-4.711-10.945-11.996,0.008-16.262c10.949-4.27,28.457-4.09,39.098,0.402    C1873.352,1794.598,1873.352,1801.875,1862.703,1806.367z"></path>		</g>		<g>			<path style="fill:#FFFFFF;" d="M1681.551,1804.742c-10.652,4.484-28.145,4.316-39.098-0.406    c-10.957-4.711-10.957-11.992,0-16.262c10.953-4.27,28.457-4.094,39.098,0.402    C1692.207,1792.969,1692.191,1800.246,1681.551,1804.742z"></path>		</g>		<g>			<path style="fill:#FFFFFF;" d="M1324.52,1969.879c-10.641,4.5-28.152,4.32-39.098-0.402c-10.949-4.707-10.949-11.996,0-16.258    c10.945-4.27,28.465-4.094,39.098,0.398C1335.168,1958.109,1335.168,1965.387,1324.52,1969.879z"></path>		</g>		<g>			<path style="fill:#FFFFFF;" d="M817.438,1860.328c-10.648,4.492-28.144,4.316-39.106-0.402c-10.949-4.711-10.949-12,0.008-16.262    c10.953-4.27,28.457-4.086,39.098,0.406C828.09,1848.563,828.078,1855.84,817.438,1860.328z"></path>		</g>		<g>			<path style="fill:#FFFFFF;" d="M462.18,2069.574c-10.645,4.484-28.152,4.316-39.117-0.41    c-10.949-4.707-10.949-11.996,0.008-16.258c10.957-4.27,28.465-4.09,39.109,0.402S472.824,2065.082,462.18,2069.574z"></path>		</g>		<g>			<path style="fill:#FFFFFF;" d="M304.777,1639.602c-10.645,4.496-28.148,4.32-39.113-0.398c-10.949-4.719-10.949-12,0.016-16.262    c10.949-4.27,28.461-4.09,39.098,0.402C315.422,1627.836,315.422,1635.109,304.777,1639.602z"></path>		</g>		<g>			<path style="fill:#FFFFFF;" d="M189.695,1553.07c-10.641,4.496-28.156,4.316-39.109-0.406c-10.941-4.715-10.941-12,0-16.262    c10.953-4.27,28.469-4.094,39.109,0.402C200.34,1541.293,200.34,1548.57,189.695,1553.07z"></path>		</g>		<g>			<path style="fill:#FFFFFF;" d="M689.293,1191.668c-10.645,4.492-28.16,4.313-39.102-0.41c-10.961-4.707-10.961-11.996,0-16.262    c10.953-4.266,28.457-4.09,39.102,0.41C699.934,1179.891,699.934,1187.172,689.293,1191.668z"></path>		</g>	</g>	<g>		<g>			<g>				<g>					<polygon style="fill:#FFFFFF;" points="541.961,1253.922 1080.164,942.555 1619.152,1253.922 1080.555,1569.504      "></polygon>					<polygon style="fill:#85B9D0;" points="541.961,1253.922 541.961,1415.027 1080.555,1724 1080.555,1564.887      "></polygon>					<polygon style="fill:#B1D1E1;" points="1619.152,1253.922 1619.152,1415.027 1080.555,1724 1080.555,1564.887      "></polygon>				</g>			</g>							<linearGradient id="SVGID_00000004521817309325463670000011529934371386330811_" gradientUnits="userSpaceOnUse" x1="809.5096" y1="1360.0975" x2="811.2176" y2="1477.9497">				<stop offset="0" style="stop-color:#302D79"></stop>				<stop offset="0.142" style="stop-color:#274081"></stop>				<stop offset="0.5633" style="stop-color:#006C9E"></stop>				<stop offset="0.8587" style="stop-color:#0088B4"></stop>				<stop offset="1" style="stop-color:#0094BD"></stop>			</linearGradient>			<polygon style="fill:url(#SVGID_00000004521817309325463670000011529934371386330811_);" points="541.961,1295.895     541.961,1360.207 1080.555,1664.77 1080.555,1601.242    "></polygon>							<linearGradient id="SVGID_00000161606848357113459400000000813796942997054594_" gradientUnits="userSpaceOnUse" x1="1347.9979" y1="1352.2913" x2="1349.7058" y2="1470.144">				<stop offset="0" style="stop-color:#302D79"></stop>				<stop offset="0.142" style="stop-color:#274081"></stop>				<stop offset="0.5633" style="stop-color:#006C9E"></stop>				<stop offset="0.8587" style="stop-color:#0088B4"></stop>				<stop offset="1" style="stop-color:#0094BD"></stop>			</linearGradient>			<polygon style="fill:url(#SVGID_00000161606848357113459400000000813796942997054594_);" points="1619.152,1295.895     1619.152,1360.207 1080.555,1664.77 1080.555,1601.242    "></polygon>			<g style="opacity:0.6;">				<path style="fill:#8FD7F5;" d="M1297.371,1337.055c-117.367,49.496-310.375,47.5-431.106-4.477     c-120.715-51.977-120.715-132.262,0.027-179.297c120.726-47.047,313.75-45.047,431.086,4.492     C1414.727,1207.262,1414.727,1287.531,1297.371,1337.055z"></path>			</g>		</g>	</g></g><g>	<g>		<g>			<rect x="112.395" y="269.406" style="fill:#3EC4DF;" width="9.977" height="772.817"></rect>		</g>		<g>			<rect x="117.383" y="269.406" style="fill:#3EC4DF;" width="57.309" height="9.977"></rect>		</g>		<g>			<rect x="117.383" y="1032.242" style="fill:#3EC4DF;" width="57.309" height="9.981"></rect>		</g>					<line style="fill:none;stroke:#3EC4DF;stroke-width:9.978;stroke-miterlimit:10;" x1="122.371" y1="311.188" x2="160.977" y2="311.188"></line>		<g>			<rect x="117.383" y="344.613" style="fill:#3EC4DF;" width="57.309" height="9.976"></rect>		</g>					<line style="fill:none;stroke:#3EC4DF;stroke-width:9.978;stroke-miterlimit:10;" x1="122.371" y1="386.395" x2="160.977" y2="386.395"></line>		<g>			<rect x="117.383" y="419.816" style="fill:#3EC4DF;" width="57.309" height="9.981"></rect>		</g>					<line style="fill:none;stroke:#3EC4DF;stroke-width:9.978;stroke-miterlimit:10;" x1="122.371" y1="461.602" x2="160.977" y2="461.602"></line>		<g>			<rect x="117.383" y="495.023" style="fill:#3EC4DF;" width="57.309" height="9.977"></rect>		</g>					<line style="fill:none;stroke:#3EC4DF;stroke-width:9.978;stroke-miterlimit:10;" x1="122.371" y1="536.805" x2="160.977" y2="536.805"></line>		<g>			<rect x="117.383" y="570.227" style="fill:#3EC4DF;" width="57.309" height="9.98"></rect>		</g>					<line style="fill:none;stroke:#3EC4DF;stroke-width:9.978;stroke-miterlimit:10;" x1="122.371" y1="612.012" x2="160.977" y2="612.012"></line>		<g>			<rect x="117.383" y="645.434" style="fill:#3EC4DF;" width="57.309" height="9.977"></rect>		</g>					<line style="fill:none;stroke:#3EC4DF;stroke-width:9.978;stroke-miterlimit:10;" x1="122.371" y1="687.215" x2="160.977" y2="687.215"></line>		<g>			<rect x="117.383" y="720.641" style="fill:#3EC4DF;" width="57.309" height="9.977"></rect>		</g>					<line style="fill:none;stroke:#3EC4DF;stroke-width:9.978;stroke-miterlimit:10;" x1="122.371" y1="762.422" x2="160.977" y2="762.422"></line>		<g>			<rect x="117.383" y="795.844" style="fill:#3EC4DF;" width="57.309" height="9.981"></rect>		</g>					<line style="fill:none;stroke:#3EC4DF;stroke-width:9.978;stroke-miterlimit:10;" x1="122.371" y1="837.629" x2="160.977" y2="837.629"></line>		<g>			<rect x="117.383" y="871.051" style="fill:#3EC4DF;" width="57.309" height="9.976"></rect>		</g>					<line style="fill:none;stroke:#3EC4DF;stroke-width:9.978;stroke-miterlimit:10;" x1="122.371" y1="912.832" x2="160.977" y2="912.832"></line>		<g>			<rect x="117.383" y="951.246" style="fill:#3EC4DF;" width="57.309" height="9.977"></rect>		</g>					<line style="fill:none;stroke:#3EC4DF;stroke-width:9.978;stroke-miterlimit:10;" x1="122.371" y1="993.027" x2="160.977" y2="993.027"></line>	</g>	<g>		<g>			<rect x="1998.953" y="269.406" style="fill:#3EC4DF;" width="9.977" height="772.817"></rect>		</g>		<g>			<rect x="1946.625" y="269.406" style="fill:#3EC4DF;" width="57.316" height="9.977"></rect>		</g>		<g>			<rect x="1946.625" y="1032.242" style="fill:#3EC4DF;" width="57.316" height="9.981"></rect>		</g>					<line style="fill:none;stroke:#3EC4DF;stroke-width:9.978;stroke-miterlimit:10;" x1="1998.953" y1="311.188" x2="1960.34" y2="311.188"></line>		<g>			<rect x="1946.625" y="344.613" style="fill:#3EC4DF;" width="57.316" height="9.976"></rect>		</g>					<line style="fill:none;stroke:#3EC4DF;stroke-width:9.978;stroke-miterlimit:10;" x1="1998.953" y1="386.395" x2="1960.34" y2="386.395"></line>		<g>			<rect x="1946.625" y="419.816" style="fill:#3EC4DF;" width="57.316" height="9.981"></rect>		</g>					<line style="fill:none;stroke:#3EC4DF;stroke-width:9.978;stroke-miterlimit:10;" x1="1998.953" y1="461.602" x2="1960.34" y2="461.602"></line>		<g>			<rect x="1946.625" y="495.023" style="fill:#3EC4DF;" width="57.316" height="9.977"></rect>		</g>					<line style="fill:none;stroke:#3EC4DF;stroke-width:9.978;stroke-miterlimit:10;" x1="1998.953" y1="536.805" x2="1960.34" y2="536.805"></line>		<g>			<rect x="1946.625" y="570.227" style="fill:#3EC4DF;" width="57.316" height="9.98"></rect>		</g>					<line style="fill:none;stroke:#3EC4DF;stroke-width:9.978;stroke-miterlimit:10;" x1="1998.953" y1="612.012" x2="1960.34" y2="612.012"></line>		<g>			<rect x="1946.625" y="645.434" style="fill:#3EC4DF;" width="57.316" height="9.977"></rect>		</g>					<line style="fill:none;stroke:#3EC4DF;stroke-width:9.978;stroke-miterlimit:10;" x1="1998.953" y1="687.215" x2="1960.34" y2="687.215"></line>		<g>			<rect x="1946.625" y="720.641" style="fill:#3EC4DF;" width="57.316" height="9.977"></rect>		</g>					<line style="fill:none;stroke:#3EC4DF;stroke-width:9.978;stroke-miterlimit:10;" x1="1998.953" y1="762.422" x2="1960.34" y2="762.422"></line>		<g>			<rect x="1946.625" y="795.844" style="fill:#3EC4DF;" width="57.316" height="9.981"></rect>		</g>					<line style="fill:none;stroke:#3EC4DF;stroke-width:9.978;stroke-miterlimit:10;" x1="1998.953" y1="837.629" x2="1960.34" y2="837.629"></line>		<g>			<rect x="1946.625" y="871.051" style="fill:#3EC4DF;" width="57.316" height="9.976"></rect>		</g>					<line style="fill:none;stroke:#3EC4DF;stroke-width:9.978;stroke-miterlimit:10;" x1="1998.953" y1="912.832" x2="1960.34" y2="912.832"></line>		<g>			<rect x="1946.625" y="951.246" style="fill:#3EC4DF;" width="57.316" height="9.977"></rect>		</g>					<line style="fill:none;stroke:#3EC4DF;stroke-width:9.978;stroke-miterlimit:10;" x1="1998.953" y1="993.027" x2="1960.34" y2="993.027"></line>	</g></g><g>	<circle style="fill:#3EC4DF;" cx="145.41" cy="205.148" r="15.566"></circle>	<polyline style="fill:none;stroke:#3EC4DF;stroke-width:9.978;stroke-miterlimit:10;" points="145.41,205.148 341.879,205.148   385.531,148.422 703.582,148.422  "></polyline></g><g>	<path style="fill:#3EC4DF;" d="M1979.566,205.148c0,8.598,6.973,15.566,15.57,15.566c8.602,0,15.566-6.969,15.566-15.566  c0-8.598-6.965-15.566-15.566-15.566C1986.539,189.582,1979.566,196.551,1979.566,205.148z"></path>	<polyline style="fill:none;stroke:#3EC4DF;stroke-width:9.978;stroke-miterlimit:10;" points="1995.137,205.148 1798.672,205.148   1755.016,148.422 1436.969,148.422  "></polyline></g><g>	<g>		<path style="fill:#3EC4DF;" d="M586.879,417.477c-2.133,62.578-53.672,112.84-116.758,112.84   c-64.438,0-116.867-52.426-116.867-116.863c0-63.223,50.469-114.84,113.234-116.773v-39.91   c-84.777,1.941-153.145,71.453-153.145,156.684c0,86.445,70.328,156.774,156.777,156.774c85.098,0,154.523-68.16,156.672-152.75   H586.879z"></path>	</g>	<g>		<path style="fill:#3EC4DF;" d="M471.477,331.32v20.926c33.152,0.73,59.91,27.879,59.91,61.207   c0,33.324-26.758,60.473-59.91,61.203v20.926c44.695-0.734,80.848-37.262,80.848-82.129S516.172,332.055,471.477,331.32z"></path>	</g>	<path style="fill:#3EC4DF;" d="M496.898,413.453c0,14.785-11.992,26.777-26.777,26.777c-14.793,0-26.77-11.992-26.77-26.777  c0-14.789,11.977-26.777,26.77-26.777C484.906,386.676,496.898,398.664,496.898,413.453z"></path>	<path style="fill:none;stroke:#3EC4DF;stroke-width:4.8347;stroke-miterlimit:10;" d="M581.672,557.594  c-30.828,23.902-69.535,38.129-111.566,38.129c-100.672,0-182.25-81.617-182.25-182.27c0-55.742,25.004-105.641,64.418-139.074"></path>	<g style="opacity:0.5;">		<path style="fill:#3EC4DF;" d="M470.121,570.227c-86.449,0-156.777-70.328-156.777-156.774   c0-86.449,70.328-156.777,156.777-156.777c86.441,0,156.781,70.328,156.781,156.777   C626.902,499.898,556.563,570.227,470.121,570.227z M470.121,296.586c-64.438,0-116.867,52.426-116.867,116.867   c0,64.438,52.43,116.863,116.867,116.863s116.871-52.426,116.871-116.863C586.992,349.012,534.559,296.586,470.121,296.586z"></path>	</g>	<g style="opacity:0.5;">		<path style="fill:#3EC4DF;" d="M470.121,495.652c-45.324,0-82.203-36.875-82.203-82.199c0-45.328,36.879-82.199,82.203-82.199   s82.203,36.871,82.203,82.199C552.324,458.777,515.445,495.652,470.121,495.652z M470.121,352.18   c-33.789,0-61.273,27.488-61.273,61.273c0,33.785,27.484,61.273,61.273,61.273s61.266-27.488,61.266-61.273   C531.387,379.668,503.91,352.18,470.121,352.18z"></path>	</g></g><g>	<g>		<g>			<g>				<g>					<rect x="325.512" y="654.266" style="fill:#3EC4DF;" width="3.863" height="284.203"></rect>				</g>				<g>					<rect x="352.621" y="654.266" style="fill:#3EC4DF;" width="3.859" height="284.203"></rect>				</g>				<g>					<rect x="379.719" y="654.266" style="fill:#3EC4DF;" width="3.875" height="284.203"></rect>				</g>				<g>					<rect x="406.836" y="654.266" style="fill:#3EC4DF;" width="3.859" height="284.203"></rect>				</g>				<g>					<rect x="433.938" y="654.266" style="fill:#3EC4DF;" width="3.867" height="284.203"></rect>				</g>				<g>					<rect x="461.051" y="654.266" style="fill:#3EC4DF;" width="3.84" height="284.203"></rect>				</g>				<g>					<rect x="488.148" y="654.266" style="fill:#3EC4DF;" width="3.871" height="284.203"></rect>				</g>				<g>					<rect x="515.262" y="654.266" style="fill:#3EC4DF;" width="3.848" height="284.203"></rect>				</g>			</g>			<g>				<g>					<rect x="292.18" y="699.641" style="fill:#3EC4DF;" width="260.273" height="3.691"></rect>				</g>				<g>					<rect x="292.18" y="726.75" style="fill:#3EC4DF;" width="260.273" height="3.695"></rect>				</g>				<g>					<rect x="292.18" y="753.856" style="fill:#3EC4DF;" width="260.273" height="3.691"></rect>				</g>				<g>					<rect x="292.18" y="780.957" style="fill:#3EC4DF;" width="260.273" height="3.691"></rect>				</g>				<g>					<rect x="292.18" y="808.074" style="fill:#3EC4DF;" width="260.273" height="3.684"></rect>				</g>				<g>					<rect x="292.18" y="835.172" style="fill:#3EC4DF;" width="260.273" height="3.68"></rect>				</g>				<g>					<rect x="292.18" y="862.289" style="fill:#3EC4DF;" width="260.273" height="3.695"></rect>				</g>				<g>					<rect x="292.18" y="889.398" style="fill:#3EC4DF;" width="260.273" height="3.68"></rect>				</g>			</g>		</g>	</g>	<g>		<polygon style="fill:#3EC4DF;" points="328.883,894.32 326.012,891.629 379.957,834.348 409.547,751.262 436.418,802.012    488.512,754.922 516.684,697.414 520.211,699.137 491.406,757.563 435.316,808.289 410.25,760.961 383.383,836.43   "></polygon>	</g>	<g>		<path style="fill:#3EC4DF;" d="M392.578,837.019c0,6.02-4.891,10.918-10.91,10.918c-6.027,0-10.914-4.898-10.914-10.918   c0-6.035,4.887-10.918,10.914-10.918C387.688,826.102,392.578,830.984,392.578,837.019z"></path>	</g>	<g>		<path style="fill:#3EC4DF;" d="M419.676,755.707c0,6.024-4.879,10.914-10.91,10.914c-6.023,0-10.91-4.891-10.91-10.914   c0-6.031,4.887-10.918,10.91-10.918C414.797,744.789,419.676,749.676,419.676,755.707z"></path>	</g>	<g>		<path style="fill:#3EC4DF;" d="M446.789,809.602c0,6.043-4.898,10.922-10.914,10.922c-6.027,0-10.914-4.879-10.914-10.922   c0-6.02,4.887-10.906,10.914-10.906C441.891,798.695,446.789,803.582,446.789,809.602z"></path>	</g>	<g>		<path style="fill:#3EC4DF;" d="M501.004,755.707c0,6.024-4.891,10.914-10.922,10.914c-6.016,0-10.918-4.891-10.918-10.914   c0-6.031,4.902-10.918,10.918-10.918C496.113,744.789,501.004,749.676,501.004,755.707z"></path>	</g>	<g>		<path style="fill:#3EC4DF;" d="M529.359,701.496c0,6.023-4.887,10.91-10.91,10.91c-6.027,0-10.926-4.887-10.926-10.91   c0-6.035,4.898-10.918,10.926-10.918C524.473,690.578,529.359,695.461,529.359,701.496z"></path>	</g></g><g>	<g>		<g>			<path style="fill:#3EC4DF;" d="M1712.746,575.691c-80.609,0-146.188-65.578-146.188-146.176    c0-80.613,65.578-146.184,146.188-146.184c80.598,0,146.188,65.57,146.188,146.184    C1858.934,510.113,1793.344,575.691,1712.746,575.691z M1712.746,290.406c-76.711,0-139.105,62.395-139.105,139.109    c0,76.699,62.395,139.113,139.105,139.113c76.707,0,139.109-62.414,139.109-139.113    C1851.855,352.801,1789.453,290.406,1712.746,290.406z"></path>		</g>		<g>			<path style="fill:#3EC4DF;" d="M1712.746,506.441c-42.422,0-76.945-34.516-76.945-76.926c0-42.434,34.523-76.941,76.945-76.941    s76.938,34.508,76.938,76.941C1789.684,471.926,1755.168,506.441,1712.746,506.441z M1712.746,356.289    c-40.375,0-73.223,32.848-73.223,73.227c0,40.367,32.848,73.203,73.223,73.203c40.359,0,73.215-32.836,73.215-73.203    C1785.961,389.137,1753.105,356.289,1712.746,356.289z"></path>		</g>		<g>			<path style="fill:#3EC4DF;" d="M1724.234,429.516c0,6.344-5.148,11.469-11.488,11.469s-11.492-5.125-11.492-11.469    c0-6.348,5.152-11.484,11.492-11.484S1724.234,423.168,1724.234,429.516z"></path>		</g>		<g>			<path style="fill:#3EC4DF;" d="M1680.938,294.816c0,5.602-4.543,10.164-10.141,10.164c-5.617,0-10.16-4.563-10.16-10.164    c0-5.621,4.543-10.16,10.16-10.16C1676.395,284.656,1680.938,289.195,1680.938,294.816z"></path>		</g>		<g>			<path style="fill:#3EC4DF;" d="M1631.484,319.977c0,5.621-4.539,10.176-10.152,10.176s-10.164-4.555-10.164-10.176    c0-5.594,4.551-10.148,10.164-10.148S1631.484,314.383,1631.484,319.977z"></path>		</g>		<g>			<path style="fill:#3EC4DF;" d="M1744.977,286.871c0,5.598-4.531,10.156-10.16,10.156c-5.598,0-10.152-4.559-10.152-10.156    c0-5.613,4.555-10.164,10.152-10.164C1740.445,276.707,1744.977,281.258,1744.977,286.871z"></path>		</g>		<g>			<path style="fill:#3EC4DF;" d="M1865.551,452.027c0,5.617-4.543,10.16-10.156,10.16c-5.609,0-10.156-4.543-10.156-10.16    c0-5.609,4.547-10.152,10.156-10.152C1861.008,441.875,1865.551,446.418,1865.551,452.027z"></path>		</g>		<g>			<polygon style="fill:#3EC4DF;" points="1855.129,453.871 1711.762,433.008 1709.371,430.09 1708.648,430.68 1619.891,321.156     1622.766,318.805 1713.727,429.535 1855.66,450.191    "></polygon>		</g>	</g></g><g>	<polygon style="fill:none;stroke:#3EC4DF;stroke-width:9.2708;stroke-linejoin:round;stroke-miterlimit:10;" points="  1637.977,891.801 1567.16,754.688 1640.012,641.586 1710.832,778.695  "></polygon>	<polygon style="fill:none;stroke:#3EC4DF;stroke-width:9.2708;stroke-linejoin:round;stroke-miterlimit:10;" points="  1637.969,891.789 1792.094,899.582 1864.949,786.484 1710.82,778.688  "></polygon>	<polygon style="fill:none;stroke:#3EC4DF;stroke-width:9.2708;stroke-linejoin:round;stroke-miterlimit:10;" points="  1640.012,641.586 1794.492,648.836 1864.949,786.484 1710.82,778.688  "></polygon></g><g>	<polyline style="fill:none;stroke:#3EC4DF;stroke-width:8.5408;stroke-linejoin:round;stroke-miterlimit:10;" points="  877.07,343.793 835.582,303.207 835.582,115.133 877.07,84.539  "></polyline>	<polyline style="fill:none;stroke:#3EC4DF;stroke-width:8.5408;stroke-linejoin:round;stroke-miterlimit:10;" points="  1249.242,343.793 1290.73,303.207 1290.73,115.133 1249.242,84.539  "></polyline>	<g>		<g>			<path style="fill:#3EC4DF;" d="M985.672,168.801l-0.305-42.785l-37.211-21.145l-36.91,21.668l0.297,42.785l37.219,21.141    L985.672,168.801z M913.066,127.566l35.098-20.613l35.391,20.113l0.293,40.684l-35.098,20.609l-35.387-20.102L913.066,127.566z"></path>			<path style="fill:#3EC4DF;" d="M1063.977,168.246l-0.305-42.793l-37.207-21.141l-36.91,21.668l0.309,42.793l37.219,21.125    L1063.977,168.246z M991.379,127.008l35.109-20.613l35.391,20.109l0.285,40.691l-35.098,20.613l-35.398-20.113L991.379,127.008z"></path>			<path style="fill:#3EC4DF;" d="M1142.934,167.684l-0.309-42.789l-37.199-21.145l-36.918,21.668l0.309,42.793l37.219,21.129    L1142.934,167.684z M1070.328,126.449l35.117-20.613l35.367,20.113l0.293,40.688l-35.086,20.609l-35.41-20.113L1070.328,126.449z    "></path>			<polygon style="fill:#3EC4DF;" points="1221.234,166.594 1220.945,124.859 1184.637,104.246 1148.633,125.371 1148.934,167.117     1185.242,187.727    "></polygon>			<polygon style="fill:#3EC4DF;" points="913.137,263.305 913.438,305.027 949.727,325.641 985.734,304.516 985.434,262.789     949.129,242.168    "></polygon>			<path style="fill:#3EC4DF;" d="M990.523,262.219l0.301,42.801l37.223,21.125l36.898-21.652l-0.313-42.805l-37.191-21.129    L990.523,262.219z M1063.137,303.445l-35.109,20.605l-35.398-20.105l-0.269-40.688l35.094-20.594l35.391,20.09L1063.137,303.445z    "></path>			<polygon style="fill:#3EC4DF;" points="1070.387,262.188 1070.68,303.914 1106.984,324.531 1142.992,303.402 1142.691,261.672     1106.391,241.047    "></polygon>			<polygon style="fill:#3EC4DF;" points="1149.602,261.625 1149.898,303.355 1186.207,323.973 1222.207,302.844 1221.91,261.109     1185.605,240.484    "></polygon>			<polygon style="fill:#3EC4DF;" points="945.797,194.941 909.5,174.316 873.484,195.453 873.785,237.184 910.094,257.805     946.09,236.672    "></polygon>			<path style="fill:#3EC4DF;" d="M1024.738,193.848l-37.231-21.145l-36.898,21.672l0.305,42.785l37.211,21.148l36.91-21.668    L1024.738,193.848z M1023.211,235.602l-35.105,20.598l-35.379-20.098l-0.281-40.691l35.086-20.598l35.391,20.098    L1023.211,235.602z"></path>			<polygon style="fill:#3EC4DF;" points="1104.238,193.816 1067.93,173.191 1031.934,194.328 1032.238,236.063 1068.52,256.68     1104.531,235.551    "></polygon>			<path style="fill:#3EC4DF;" d="M1182.277,192.727l-37.223-21.133l-36.93,21.66l0.316,42.789l37.23,21.145l36.898-21.668    L1182.277,192.727z M1180.73,234.48l-35.078,20.598l-35.363-20.098l-0.293-40.691l35.07-20.598l35.379,20.098L1180.73,234.48z"></path>			<path style="fill:#3EC4DF;" d="M1224.281,171.027l-36.906,21.664l0.309,42.793l37.195,21.141l36.934-21.668l-0.305-42.789    L1224.281,171.027z M1259.953,233.918l-35.082,20.594l-35.383-20.094l-0.281-40.691l35.09-20.602l35.371,20.105L1259.953,233.918    z"></path>		</g>	</g></g><g>	<path style="fill:#F9AC85;" d="M985.102,685.805c0,0-2.16,11.375-6.301,77.977c0,0,3.449,8.242,10.141,2.059  c0,0,18.387-70.894,14.645-78.488C998.648,677.352,989.781,681.906,985.102,685.805z"></path>	<g>		<path style="fill:#F9AC85;" d="M987.004,760.434c0,0,4.895,10.465,5.625,12.063c0.738,1.598,0.027,4.805-0.227,6.527   c-0.242,1.715-0.258,7.231-0.391,8.34c-0.113,1.102-2.082,0.609-2.332-1.598c-0.234-2.211-0.707-7.238-1.074-8.223   c0,0-0.773-1.102-1.664-1.223c0,0,0.09,1.426,0.219,3.141c0.125,1.723,1.281,14.285,0,16.5c-1.289,2.207-2.516,1.961-4.238,0.613   c-1.715-1.356-9.898-18.066-3.434-35.254L987.004,760.434z"></path>		<path style="fill:#140D17;" d="M1091.543,1039.473c0,0,4.91,6.387,0,26.855l-3.441,11.797l-3.441,0.652l-1.797-2.457   c0,0,1.434-7.387,0.613-10.496c0,0-4.262,2.5-14.047,9.68c0,0-1.938,2.246-9.473,4.043c-7.527,1.809-19.574,3.371-21.891,1.52   c-2.746-2.191-2.984-4.617,2.422-11l20.184-15.672l12.48-13.488L1091.543,1039.473z"></path>		<path style="fill:#140D17;" d="M1042.402,1012.203c0,0,4.906,6.387,0,26.859l-3.441,11.789l-3.441,0.656l-1.797-2.457   c0,0,1.43-7.387,0.621-10.496c0,0-4.277,2.504-14.055,9.676c0,0-1.945,2.25-9.477,4.051c-7.535,1.801-19.566,3.375-21.879,1.52   c-2.758-2.199-2.996-4.621,2.41-11.008l20.188-15.676l12.484-13.477L1042.402,1012.203z"></path>		<g>			<path style="fill:#333248;" d="M1039.082,794.629l-10.605,109.887c0,0,10.352,33.984,11.137,39.957    c0.781,5.953,4.539,67.543,4.539,67.543s-3.383,13.781-24.934,3.145c0,0-17.707-73.266-23.258-98.359    c-6.004-27.137-6.813-93.684-7.484-111.012c-0.844-21.707,6.949-42.137,6.949-42.137L1039.082,794.629z"></path>		</g>		<g>			<path style="fill:#333248;" d="M1094.055,1042.332c0,0-4.199,8.238-24.625,1.418c0,0-8.094-81.141-13.184-108.738    c0,0-14.039-25.363-15.328-34.938c-1.266-9.574-22.535-67.613-27.656-94.539c-1.109-5.824-9.816-37.141-9.176-45.102    c0.641-7.953,75.984,9.895,75.984,9.895s-1.617,5.191-0.719,31.633c1.051,30.856-2.961,79.691-1.48,82.246    c0,0,11.645,29.727,15.426,47.176C1095.098,939.734,1094.055,1042.332,1094.055,1042.332z"></path>		</g>		<path style="fill:#F9AC85;" d="M993.152,626.469l-8.125,61.895c0,0,1.531,16.094,7.816,9.816c0,0,12.012,8.246,23.836-64.043   L993.152,626.469z"></path>		<g>			<g>				<g>					<g>						<path style="fill:#FEBF51;" d="M986.559,655.106l2.305-41.371c0,0-0.516-16.441,13.598-21.188       c12.727-4.277,24.832,7.723,24.848,15.906c0.02,5.742-5.223,29.367-12.891,51.57       C1014.418,660.023,996.059,664.34,986.559,655.106z"></path>					</g>				</g>			</g>		</g>		<path style="fill:#FEBF51;" d="M991.504,772.941c0,0,15.887,17.98,48.25,17.973c0,0,28.449-2.273,46.027-19.563   c0,0-9.074-36.809-15.309-64.57c0,0,7.758-22.5,13.273-37.898c3.707-10.367,16.441-43.426,4.094-49.246   c0,0,2.816-4.281-27.773-20.012c-5.895-3.035-40.914-7.664-54.406-7.977c0,0-17.719,52.051-21.16,57.945   c0,0-8.352,15.508,13.602,31.477c0,0,2.211,19.652,4.152,30.457C1004.195,722.336,991.504,772.941,991.504,772.941z"></path>		<path style="fill:#F9AC85;" d="M1075.465,656.973l5.785,51.918c0,0,0.945,27.301,10,23.281c0,0,15.434,7.395,7.852-74.023   L1075.465,656.973z"></path>		<path style="fill:#F9AC85;" d="M1082.059,717.527c0,0-2.172,10.516-6.594,80.965c0,0-0.488,9.363,6.355,3.352   c0,0,21.559-76.047,18.004-83.742C1095.148,707.984,1086.836,713.75,1082.059,717.527z"></path>		<g>			<g>				<path style="fill:#F39A71;" d="M1023.508,590.738c0,0,0.035,10.727-1.5,20.473c0,0,3.512,6.906,6.41,8.426     c0,0,22.379-5.41,31.648-20.012c0,0-5.875-14.422-0.75-38.461l-4.141-1.934L1023.508,590.738z"></path>				<path style="fill:#D27B54;" d="M1060.066,599.625c-2.582,4.07-6.195,7.406-10.047,10.125c2.242-7.082,3.105-23.801,3.105-23.801     c-10.141,8.473-23.789,13.258-29.977,14.688c0.047-5.152,0.359-9.898,0.359-9.898l31.668-31.508l4.141,1.934     C1054.191,585.203,1060.066,599.625,1060.066,599.625z"></path>				<path style="fill:#F9AC85;" d="M1009.578,530.641l-2.469,18.734c0,0-0.121,18.277,1.352,26.438c0,0,2.27,15.469,5.215,18.789     c0,0,4.93,3.129,11.586,1.477c4.922-1.23,19.188-6.227,24.594-14.66c0,0,6.91-11.801,6.793-15.484c0,0,1.52,3.496,4.031-0.922     c2.512-4.414,3.523-12.887,2.777-15.465c-0.73-2.57-4.164-1.473-4.969-1.473c-0.797,0-2.027,1.105-2.688,3.68     c-0.672,2.582,2.719-17.484-2.602-24.297C1045.422,517.519,1021.492,513.094,1009.578,530.641z"></path>			</g>		</g>		<g>			<g>				<g>					<path style="fill:#FEBF51;" d="M1075.426,681.758l-7.555-41.254c0,0-3.777-16.008,9.113-23.477      c11.613-6.719,23.133,7.441,24.207,19.984c0.492,5.719,4.578,15.398,1.477,38.684      C1102.668,675.695,1086.57,688.914,1075.426,681.758z"></path>				</g>			</g>		</g>		<g>			<path style="fill:#2A284E;" d="M1002.019,543.965l5.484-4.5c0,0,4.504-0.844,9.047,4.117c0,0,1.481,3.055,10.016,1.758    c7.676-1.172,12.34,0.781,13.301,1.438c0,0,7.23,4.484,2.992,18.492l-3.918,3.211L1002.019,543.965z"></path>			<path style="fill:#2A284E;" d="M1032.035,557.644l-36.375-8.84c0,0-0.5,0-0.867,0.25l0,0l-0.016,0.004    c-0.016,0.02-0.035,0.035-0.063,0.051l-2.695,1.914l2.52,1.801l0.578,11.344c0,0,0.297,0.469,1.027,0.762    c0.5,0.191,19.801,4.941,28.957,7.231l5.469,3.91l2.34-1.961c0.039-0.004,0.633-0.453,0.574-1.68l-0.688-13.898    C1032.797,558.531,1032.91,557.859,1032.035,557.644z"></path>			<path style="fill:#D4D4EA;" d="M1038.984,551.231l-36.09-8.84c0,0-0.492,0-0.863,0.254l0,0l-0.004,0.004    c-0.027,0.012-0.043,0.027-0.074,0.047l-10.105,8.246l6.75,3.348l5.609,1.938c0,0,0.305,0.465,1.039,0.754    c0.496,0.191,9.961,13.195,19.125,15.48l6.199,3.609l9.336-7.516c0.043-0.012,0.633-0.453,0.566-1.68l-0.719-14.754    C1039.754,552.121,1039.859,551.445,1038.984,551.231z"></path>			<path style="fill:#A1A4C5;" d="M1027.309,574.176l3.262,1.895l9.336-7.516c0.043-0.012,0.633-0.453,0.566-1.68l-0.719-14.754    c0,0,0.016-0.18-0.063-0.379l-10.984,9.551L1027.309,574.176z"></path>			<path style="fill:#3E3E73;" d="M991.519,552.086l0.719,14.117c0,0,0.301,0.465,1.031,0.758    c0.746,0.289,37.094,9.227,37.094,9.227s0.664-0.102,0.578-1.684l-0.711-13.906c0,0,0.059-0.656-0.809-0.871l-36.641-8.891    C992.781,550.836,991.348,550.828,991.519,552.086z"></path>			<path style="fill:#1E1C4D;" d="M992.859,552.871l0.672,13.148c0,0,0.277,0.438,0.961,0.711    c0.688,0.269,34.574,8.598,34.574,8.598s0.605-0.09,0.535-1.566l-0.66-12.957c0,0,0.051-0.617-0.758-0.816l-34.145-8.281    C994.039,551.707,992.699,551.691,992.859,552.871z"></path>			<polygon style="fill:#D4D4EA;" points="1043.133,562.523 1040.945,564.016 1040.402,553.418 1042.582,551.656    "></polygon>		</g>		<path style="fill:#0F0E33;" d="M1071.785,529.672c0,0-11.719,12.82-30.363,24.48l0.406,8.285c0,0,21.629-13.758,30.75-24.898   C1072.578,537.539,1072.648,534.441,1071.785,529.672z"></path>		<path style="fill:#F9AC85;" d="M1075.609,796.258c0,0-4.883,10.465-5.621,12.063c-0.73,1.594-0.246,3.566,0,5.277   c0.254,1.719,0.484,8.48,0.621,9.586c0.117,1.106,2.086,0.613,2.332-1.602c0.242-2.207,0.488-8.473,0.855-9.457   c0,0,0.77-1.102,1.668-1.227c0,0,0.121,2.668,0,4.387c-0.129,1.723-1.289,14.281,0,16.492c1.285,2.215,2.512,1.969,4.227,0.617   c1.715-1.348,9.906-18.066,3.449-35.25L1075.609,796.258z"></path>	</g>	<path style="fill:#2E140F;" d="M1035.406,509.168c0,0-10.207,4.586-11.578,18.941c-0.559,5.891,22.664,32.031,32.82,37.824  c0,0-0.371,27.52,3.418,33.691c0,0,1.313,2.172,19.422,11.215c0,0-7.359-25.68-6.91-39.438  C1073.027,557.644,1086.875,508.512,1035.406,509.168z"></path>	<path style="fill:#2E140F;" d="M1027.309,526.856c0,0-11.852,7.215-18.438,9.18l-1.367,3.43c0,0-1.809-8.184-0.57-16.699  c1.242-8.516,14.102-23.094,28.473-13.598L1027.309,526.856z"></path></g><g>	<path style="fill:#E28E68;" d="M1366.734,827.352l-13.797,41.125c0,0-9.934,27.59,0.688,27.191c0,0,14.09,9.066,30.047-58.785  L1366.734,827.352z"></path>	<g>		<g>			<g>				<g>					<path style="fill:#C5212D;" d="M1351.48,858.387l17.219-51.766c0,0,4.281-17.137,20.254-17.906      c14.383-0.691,23.246,21.586,20.863,30.047c-1.656,5.934-16.578,32.168-31.008,52.855      C1378.809,871.617,1358.59,870.703,1351.48,858.387z"></path>				</g>			</g>			<g>				<g>					<g>						<g>							<g>								<polygon style="fill:#140D17;" points="1416.043,1273.484 1407.629,1271.066 1414.863,1265.484 1417.09,1270.504                  "></polygon>								<path style="fill:#2C234A;" d="M1416.086,1271.625l-0.043,1.859l14.344-5.242c0,0,3.262-21.813-1.664-32.992l-27.945,2.664         l-4.105,11.172c0,0-17.219,14.168-28.895,21.477c0,0-7.711,4.441-7.016,10.367c0,0,2.234,10.844,19.898,5.086         c0,0,12.488-4.387,21.273-8.051C1401.934,1277.965,1411.473,1270.902,1416.086,1271.625z"></path>								<path style="fill:#1F1634;" d="M1416.086,1271.625c-4.613-0.723-14.152,6.34-14.152,6.34         c-8.785,3.664-21.273,8.051-21.273,8.051c-17.664,5.758-19.898-5.086-19.898-5.086c-0.148-1.316,0.156-2.559,0.652-3.703         c6.543,9.336,59.988-21.184,51.305-21.184c-5.039,0-12.145-2.895-17.707-5.594c1.055-0.859,1.66-1.363,1.66-1.363         l4.105-11.172l27.945-2.664c4.926,11.18,1.664,32.992,1.664,32.992l-14.344,5.242L1416.086,1271.625z"></path>								<path style="fill:#3090A7;" d="M1431.445,1036.016c0,0-11.488,63.141-13.094,69.313c-1.613,6.164-3.32,31.105-3.32,31.105         s7.555,26.133,8.391,32.555c0.844,6.383,9.734,71.961,9.734,71.961s-4.137,13.43-37.07-0.766         c0,0-11.266-68.254-17.227-95.195c-6.449-29.125-4.738-106.82-5.469-125.418c-0.906-23.305,1.375-45.238,1.375-45.238         L1431.445,1036.016z"></path>							</g>							<g>								<polygon style="fill:#140D17;" points="1455.738,1304.227 1447.32,1301.813 1454.559,1296.219 1456.781,1301.246                  "></polygon>								<path style="fill:#2C234A;" d="M1472.055,1302.367l-0.043,1.859l14.344-5.25c0,0,3.266-21.809-1.656-32.992l-27.945,2.672         l-4.113,11.172c0,0-17.219,14.168-28.891,21.473c0,0-7.707,4.441-7.016,10.371c0,0,2.238,10.844,19.891,5.086         c0,0,12.492-4.383,21.293-8.047C1457.918,1308.711,1467.441,1301.645,1472.055,1302.367z"></path>								<path style="fill:#1F1634;" d="M1472.055,1302.367c-4.613-0.723-14.137,6.344-14.137,6.344         c-8.801,3.664-21.293,8.047-21.293,8.047c-17.652,5.758-19.891-5.086-19.891-5.086c-0.152-1.316,0.156-2.563,0.668-3.711         c6.531,9.348,59.965-21.188,51.285-21.188c-5.039,0-12.141-2.879-17.699-5.59c1.047-0.848,1.652-1.355,1.652-1.355         l4.113-11.172l27.945-2.672c4.922,11.184,1.656,32.992,1.656,32.992l-14.344,5.25L1472.055,1302.367z"></path>								<path style="fill:#3FAECE;" d="M1494.34,1273.484c0,0-13.652,9.234-42.285,0c0,0,2.043-86.871-8.066-115.66         c0,0-15.074-27.223-16.445-37.504c-1.371-10.281-23.512-91.52-27.539-101.023c-2.484-5.859-15.379-45.309-14.688-53.852         c0.688-8.535,86.398,16.059,86.398,16.059s-1.727,5.57-0.766,33.953c1.117,33.125,5.711,91.383,7.309,94.125         c0,0,9.652,26.957,13.707,45.691C1493.906,1164.234,1494.34,1273.484,1494.34,1273.484z"></path>							</g>							<path style="fill:#EF4443;" d="M1477.168,818.762c0,0,3.016-4.598-29.813-21.488c-6.324-3.254-43.918-8.227-58.402-8.559        c-8.508-0.191-24.988,39.879-16.566,86.711c0,0-2.836,87.941-2.836,107.82c0,0,21.258,19.383,55.996,19.371        c0,0,30.539-2.434,49.418-20.996c0,0-3.801-25.301-5.168-53.176c0,0-3.227-35.039,2.691-51.57        C1476.465,865.746,1490.43,825.004,1477.168,818.762z"></path>							<path style="fill:#E28E68;" d="M1444.066,848.004l-20.055,52.363c0,0-12.551,26.516-1.934,27.133        c0,0,11.078,14.652,43.941-66.742L1444.066,848.004z"></path>							<path style="fill:#F9AC85;" d="M1435.676,915.652c0,0-43.121-53.656-50.957-65.199c0,0-8.785-3.859-9.418,5.891        c0,0,37.063,69.57,45.598,72.715C1432.125,933.195,1434.926,922.141,1435.676,915.652z"></path>							<path style="fill:#F9AC85;" d="M1372.805,856.055c0,0,3.219,3.063,6.273,1.281c0,0,5.48,2.383,8.355-3.098        c2.867-5.48,2.797-7.02,2.559-14.039c0,0,1.402-13.277,2.605-18.469c0,0-0.543-4.008-3.07,0.262        c0,0-1.715,11.684-2.668,12.461c0,0-1.629,1.348-1.684-1.367c-0.051-2.777,0.504-19.035-0.395-20.438        c-1.004-1.57-2.43-0.965-2.766,0.773c-0.367,1.895-1.625,18.297-1.625,18.297s-0.762,2.359-1.762,1.078        s-2.578-21.82-3.129-23.875c-0.551-2.004-3.141-2.582-3.633,1.602c-0.254,2.16,2.125,21.231,2.125,21.231        s-0.469,1.176-1.387-0.137c-1.289-1.859-3.332-17.644-6.16-18.918c-2.66-1.211-1.289,3.172-1.516,3.469        c-0.234,0.297,4.195,23.941,3.992,25.055c-0.203,1.113,0.363,2.34-2.117,1.273c-2.477-1.07-7.676-8-10.535-4.988        c0,0-0.523,0.82-0.059,1.129c0.461,0.305,7.379,7.109,9,8.68C1368.246,850.242,1371.848,855.027,1372.805,856.055z"></path>							<g>								<g>									<path style="fill:#F39A71;" d="M1408.113,787.738c0,0,0.047,11.516-1.609,21.973c0,0,3.766,7.418,6.879,9.051          c0,0,24.027-5.813,33.973-21.488c0,0-6.305-15.477-0.797-41.281l-4.445-2.078L1408.113,787.738z"></path>									<path style="fill:#D27B54;" d="M1447.355,797.273c-2.77,4.367-6.652,7.945-10.781,10.871          c2.414-7.601,3.332-25.547,3.332-25.547c-10.895,9.094-25.535,14.23-32.18,15.766c0.051-5.539,0.387-10.625,0.387-10.625          l34-33.824l4.445,2.078C1441.051,781.797,1447.355,797.273,1447.355,797.273z"></path>									<path style="fill:#F9AC85;" d="M1393.156,723.223l-2.648,20.109c0,0-0.129,19.617,1.457,28.383          c0,0,2.43,16.606,5.598,20.172c0,0,5.289,3.352,12.434,1.582c5.277-1.324,20.582-6.688,26.406-15.742          c0,0,7.398-12.664,7.289-16.617c0,0,1.621,3.75,4.324-0.988c2.695-4.742,3.777-13.832,2.988-16.602          c-0.801-2.766-4.484-1.578-5.336-1.578c-0.863,0-2.176,1.184-2.895,3.953c-0.715,2.766,2.914-18.777-2.797-26.09          C1431.637,709.133,1405.953,704.391,1393.156,723.223z"></path>									<path style="fill:#3B272D;" d="M1443.699,744.398c0,0-1.07,7.465-2.375,8.117c-1.309,0.641-2.945-2.551-2.461-4.617          c0.465-2.07-4.828-9.402-5.707-18.238c0,0-5.824,0.43-14.445,1.07c-8.617,0.652-21.113,1.953-26.125-3.191          c-1.41-1.445,0.176-14.168,4.113-17.094c0,0,15.152-15.664,46.949-9.231c0,0,20.566,2.945,16.633,40.231          c0,0-2.602,10.766-9.418,20.984c0,0-5.527,7.371-6.477,17.965c0,0-2.398-11.527-0.695-19.285c0,0,3.156,6.664,6.816-8.297          c0,0,1.836-9.758-1.656-11.066C1448.852,741.746,1445.117,740.945,1443.699,744.398z"></path>								</g>							</g>						</g>					</g>				</g>			</g>			<g>				<g>					<path style="fill:#C5212D;" d="M1427.711,880.316l17.219-51.766c0,0,4.281-17.137,20.242-17.902      c14.391-0.695,24.27,21.848,19.117,34.34c-2.348,5.695-14.824,27.875-29.25,48.563      C1455.039,893.551,1434.82,892.633,1427.711,880.316z"></path>				</g>			</g>		</g>	</g>	<g>		<path style="fill:#2A284E;" d="M1385.051,737.527l5.879-4.832c0,0,4.828-0.902,9.715,4.422c0,0,1.59,3.273,10.75,1.883   c8.246-1.254,13.242,0.844,14.285,1.547c0,0,7.754,4.816,3.203,19.852l-4.203,3.449L1385.051,737.527z"></path>		<path style="fill:#2A284E;" d="M1417.266,752.211l-39.051-9.492c0,0-0.531,0-0.93,0.273l0,0l-0.008,0.004   c-0.023,0.02-0.055,0.031-0.074,0.051l-2.895,2.055l2.703,1.93l0.617,12.184c0,0,0.332,0.5,1.117,0.813   c0.527,0.211,21.246,5.309,31.082,7.766l5.867,4.199l2.516-2.109c0.039-0.008,0.68-0.488,0.613-1.801l-0.738-14.914   C1418.086,753.168,1418.203,752.441,1417.266,752.211z"></path>		<path style="fill:#D4D4EA;" d="M1424.734,745.324l-38.742-9.488c0,0-0.539,0-0.934,0.273l0,0h-0.008   c-0.016,0.02-0.051,0.035-0.074,0.055l-10.852,8.852l7.258,3.594l6.016,2.078c0,0,0.328,0.504,1.105,0.813   c0.543,0.207,10.699,14.16,20.535,16.621l6.656,3.871l10.016-8.07c0.039-0.008,0.688-0.488,0.621-1.801l-0.785-15.84   C1425.547,746.281,1425.664,745.559,1424.734,745.324z"></path>		<path style="fill:#A1A4C5;" d="M1412.199,769.957l3.496,2.035l10.016-8.07c0.039-0.008,0.688-0.488,0.621-1.801l-0.785-15.84   c0,0,0.027-0.191-0.066-0.41l-11.789,10.258L1412.199,769.957z"></path>		<path style="fill:#3E3E73;" d="M1373.77,746.242l0.777,15.152c0,0,0.324,0.504,1.109,0.816c0.789,0.313,39.82,9.902,39.82,9.902   s0.707-0.102,0.617-1.797l-0.758-14.934c0,0,0.063-0.711-0.879-0.938l-39.332-9.539   C1375.125,744.906,1373.598,744.891,1373.77,746.242z"></path>		<path style="fill:#1E1C4D;" d="M1375.207,747.086l0.727,14.121c0,0,0.293,0.461,1.035,0.754   c0.734,0.293,37.109,9.231,37.109,9.231s0.664-0.094,0.574-1.68l-0.707-13.91c0,0,0.055-0.664-0.813-0.875l-36.652-8.891   C1376.48,745.836,1375.047,745.816,1375.207,747.086z"></path>		<polygon style="fill:#D4D4EA;" points="1429.18,757.445 1426.828,759.047 1426.25,747.672 1428.582,745.781   "></polygon>	</g>	<path style="fill:#0F0E33;" d="M1459.934,722.184c0,0-12.578,13.77-32.59,26.277l0.43,8.898c0,0,23.23-14.77,33.012-26.734  C1460.785,730.625,1460.863,727.305,1459.934,722.184z"></path>	<path style="fill:#F9AC85;" d="M1367.887,883.984c0,0-47.887-51.176-56.371-62.254c0,0-8.988-3.352-9.066,6.422  c0,0,40.984,67.336,49.684,69.988C1363.578,901.629,1367.496,890.504,1367.887,883.984z"></path>	<path style="fill:#F9AC85;" d="M1314.961,825.269c0,0-2.266,3.805-5.688,2.918c0,0-4.648,3.766-8.887-0.746  c-4.238-4.504-5.152-8.356-6.809-15.176c0,0-6.988-7.516-9.551-12.195c0,0-0.551-4,3.035-0.57c0,0,7.434,8.246,8.559,8.731  c0,0,1.93,0.863,1.258-1.766c-0.695-2.695-8.012-17.297-7.52-18.887c0.547-1.781,2.082-1.582,2.871,0.004  c0.863,1.723,8.887,16.281,8.887,16.281s1.371,2.066,2,0.563c0.613-1.496-8.41-20.137-8.414-22.27  c-0.012-2.078,2.047-2.543,3.059-0.18c0.867,1.996,9.523,20.199,9.523,20.199s0.781,1.008,1.301-0.5  c0.742-2.141-3.32-18-0.945-19.988c2.246-1.879,2.098,2.715,2.402,2.934c0.297,0.227,4.188,24.297,4.684,25.313  c0.488,1.02,0.281,2.352,2.371,0.66c2.102-1.695,5.242-9.769,8.816-7.633c0,0,0.719,0.641,0.359,1.066  c-0.359,0.422-5.195,8.836-6.348,10.781C1317.793,818.441,1315.609,824.016,1314.961,825.269z"></path></g><g>	<g>		<g>			<path style="fill:#C02126;" d="M861.809,860.769l15.715-9.055l402.547,231.008l49.441,26.422l0.965,235.105l-144.555,83.461    l-47.867-27.617v-20.16l-329.723-193.465l-16.516,9.176l-47.859-28.52v-104.973c0,0-3.523-38.313,31.879-57.504l54.867-34.965    v-63.316c0,0,0.258-30.019,16.574-37.809L861.809,860.769z"></path>			<path style="fill:#EF3F3E;" d="M775.836,1004.648l54.867-34.965v-1.059l51.777,30.25l-66.742,67.184l-64.09-37.629    C756.367,1019.797,763.879,1011.133,775.836,1004.648z"></path>			<path style="fill:#EF3F3E;" d="M1233.773,1206.117c0,0-4.82-94.07-0.98-103.613l48.828-27.973l47.863,27.383l-48.301,132.969    L1233.773,1206.117z"></path>			<path style="fill:#EE3331;" d="M791.816,1097.793v97.852l88.59-49.25l2.074-146.457l-52.945,30.75    C829.535,1030.688,787.813,1052.395,791.816,1097.793z"></path>			<polygon style="fill:#EF3F3E;" points="810.168,1076.621 882.523,1035.898 1216.801,1230.293 1147.035,1284.383     860.605,1123.395    "></polygon>			<polygon style="fill:#C02126;" points="1145.242,1272.418 1148.004,1386.18 809.766,1187.293 810.168,1076.621    "></polygon>			<path style="fill:#EF3F3E;" d="M1137.852,1311.453l0.203,88.641l47.867,27.617l95.262-192.828l-47.41-28.766l-47.852,27.906    C1185.922,1234.023,1133.113,1252.605,1137.852,1311.453z"></path>			<path style="fill:#EE3331;" d="M1186.215,1334.117l-0.293,93.594l144.555-83.461l-0.992-242.336l-19.637,11.117    c0,0-33.371,18.031-29.172,70.613l0.508,51.238l-60.375,34.895C1220.809,1269.777,1183.066,1286.359,1186.215,1334.117z"></path>		</g>	</g>	<g>		<path style="fill:#140D17;" d="M960.707,1306.891c0,0,5.031,6.539,0,27.469l-3.512,12.055l-3.512,0.672l-1.844-2.512   c0,0,1.461-7.555,0.621-10.734c0,0-4.359,2.559-14.359,9.895c0,0-1.98,2.301-9.684,4.137c-7.703,1.844-20.008,3.445-22.375,1.555   c-2.809-2.242-3.063-4.727,2.465-11.254l20.641-16.02l12.766-13.789L960.707,1306.891z"></path>		<path style="fill:#140D17;" d="M902.527,1279.016c0,0,5.02,6.527,0,27.469l-3.508,12.047l-3.527,0.672l-1.84-2.508   c0,0,1.465-7.559,0.629-10.738c0,0-4.367,2.563-14.367,9.898c0,0-1.977,2.301-9.684,4.145c-7.695,1.828-20.004,3.449-22.375,1.547   c-2.809-2.246-3.055-4.715,2.473-11.254l20.633-16.02l12.766-13.789L902.527,1279.016z"></path>		<path style="fill:#13355C;" d="M980.664,1102.914l-69.996,67.375l1.18,110.66c0,0-3.746,12.199-33.664-0.688   c0,0-9.004-76.086-11.383-106.383c-1.606-20.434,64.695-72.43,74.465-86.211C954.102,1069.582,980.664,1102.914,980.664,1102.914z   "></path>		<path style="fill:#1A3C6B;" d="M965.07,1308.258c0,0-12.414,11.816-36.059,0c0,0-21.945-128.18-21.246-137.57   c1.535-20.41,56.574-70.508,52.246-74.328c-4.328-3.824-7.957-16.137-7.336-23.898c0.621-7.746,74.156,14.414,74.156,14.414   s2.793,3.063-0.109,25.793c-3.121,24.398-72.305,64.152-70.848,66.641L965.07,1308.258z"></path>		<g>			<path style="fill:#F9AC85;" d="M956.695,922.723l-46.242-38.551c0,0-6.238-9.559-10.277-0.898c0,0-14.668,7.731,38.137,54.664    L956.695,922.723z"></path>			<g>				<g>					<g>						<path style="fill:#D468A8;" d="M936.754,902.578l32.535,23.219c0,0,13.664,8.07,10.242,22.012       c-3.078,12.574-19.102,16.254-25.781,12.047c-4.684-2.953-21.234-19.41-35.363-37.121       C918.387,922.734,924.34,905.555,936.754,902.578z"></path>					</g>				</g>			</g>			<path style="fill:#D468A8;" d="M942.715,1084.777c0,0,15.324,17.348,46.531,17.336c0,0,27.434-2.195,44.395-18.875    c0,0-8.145-19.93-14.137-46.707c0,0,7.473-21.699,12.793-36.547c3.574-10,15.852-41.883,3.938-47.496    c0,0,2.719-4.129-26.777-19.301c-5.68-2.926-39.461-7.391-52.473-7.688c0,0-17.094,50.191-20.406,55.875    c0,0-8.055,14.961,13.125,30.363c0,0,2.117,18.949,3.988,29.375C955.57,1051.539,942.715,1084.777,942.715,1084.777z"></path>			<g>				<g>					<path style="fill:#F39A71;" d="M974.203,924.621c0,0,0.031,10.34-1.449,19.742c0,0,3.391,6.66,6.176,8.125      c0,0,21.586-5.219,30.527-19.301c0,0-5.668-13.91-0.723-37.09l-3.996-1.867L974.203,924.621z"></path>					<path style="fill:#D27B54;" d="M1009.457,933.188c-2.496,3.922-5.973,7.137-9.699,9.766c2.176-6.828,3-22.949,3-22.949      c-9.777,8.168-22.938,12.781-28.906,14.164c0.047-4.981,0.352-9.547,0.352-9.547l30.535-30.391l3.996,1.867      C1003.789,919.277,1009.457,933.188,1009.457,933.188z"></path>					<path style="fill:#F9AC85;" d="M960.758,866.656l-2.379,18.067c0,0-0.109,17.625,1.313,25.5c0,0,2.184,14.918,5.019,18.117      c0,0,4.762,3.02,11.176,1.422c4.742-1.18,18.5-6.004,23.731-14.137c0,0,6.656-11.375,6.543-14.93c0,0,1.465,3.371,3.887-0.887      c2.422-4.262,3.395-12.43,2.68-14.918c-0.707-2.48-4.016-1.418-4.777-1.418c-0.789,0-1.965,1.063-2.609,3.551      c-0.644,2.488,2.617-16.867-2.512-23.441C995.336,854,972.254,849.738,960.758,866.656z"></path>				</g>			</g>			<g>				<path style="fill:#2A284E;" d="M953.477,879.504l5.289-4.34c0,0,4.336-0.805,8.727,3.977c0,0,1.426,2.941,9.656,1.691     c7.406-1.125,11.891,0.754,12.828,1.391c0,0,6.977,4.328,2.883,17.832l-3.773,3.102L953.477,879.504z"></path>				<path style="fill:#2A284E;" d="M982.418,892.703l-35.082-8.531c0,0-0.477,0-0.836,0.246l0,0h-0.012     c-0.02,0.016-0.039,0.031-0.059,0.047l-2.602,1.848l2.426,1.738l0.559,10.941c0,0,0.289,0.449,0.996,0.727     c0.48,0.192,19.094,4.773,27.934,6.984l5.269,3.77l2.258-1.895c0.031-0.004,0.613-0.434,0.551-1.617l-0.664-13.402     C983.156,893.559,983.266,892.902,982.418,892.703z"></path>				<path style="fill:#D4D4EA;" d="M989.117,886.512l-34.793-8.52c0,0-0.48-0.004-0.84,0.242l0,0l-0.008,0.004     c-0.02,0.012-0.039,0.027-0.07,0.043l-9.742,7.957l6.516,3.227l5.406,1.863c0,0,0.289,0.457,1,0.734     c0.477,0.184,9.605,12.723,18.445,14.93l5.98,3.481l8.996-7.25c0.039-0.008,0.609-0.438,0.555-1.617l-0.699-14.234     C989.863,887.371,989.969,886.723,989.117,886.512z"></path>				<path style="fill:#A1A4C5;" d="M977.867,908.641l3.144,1.832l8.996-7.25c0.039-0.008,0.609-0.438,0.555-1.617l-0.699-14.234     c0,0,0.023-0.172-0.063-0.363l-10.594,9.215L977.867,908.641z"></path>				<path style="fill:#3E3E73;" d="M943.344,887.34l0.699,13.613c0,0,0.297,0.453,0.992,0.734     c0.715,0.277,35.781,8.898,35.781,8.898s0.629-0.098,0.555-1.621l-0.688-13.414c0,0,0.055-0.641-0.785-0.84l-35.34-8.578     C944.559,886.133,943.176,886.121,943.344,887.34z"></path>				<path style="fill:#1E1C4D;" d="M944.637,888.102l0.652,12.68c0,0,0.27,0.418,0.926,0.684c0.66,0.262,33.344,8.293,33.344,8.293     s0.594-0.094,0.519-1.512l-0.644-12.5c0,0,0.059-0.594-0.731-0.785l-32.922-7.988     C945.781,886.973,944.492,886.965,944.637,888.102z"></path>				<polygon style="fill:#D4D4EA;" points="993.125,897.402 991.012,898.84 990.488,888.621 992.586,886.922     "></polygon>			</g>			<path style="fill:#0F0E33;" d="M1020.75,865.723c0,0-11.293,12.371-29.273,23.609l0.379,7.992c0,0,20.871-13.27,29.664-24.016    C1021.519,873.309,1021.586,870.324,1020.75,865.723z"></path>			<path style="fill:#F9AC85;" d="M917.672,894.066c0,0,0.496-62.969,1.832-75.426c0,0-3.777-7.754-9.883-1.438    c0,0-15,69.219-10.977,76.324C903.941,902.891,913.379,898.066,917.672,894.066z"></path>			<path style="fill:#F9AC85;" d="M919.555,823.07c0,0-3.828,1.078-5.516-1.617c0,0-5.352-0.422-5.32-5.98    c0.043-5.567,1.82-8.637,4.961-14.109c0,0,0.105-9.219,1.34-13.852c0,0,2.109-2.945,2.324,1.508c0,0-0.262,9.969,0.168,10.984    c0,0,0.719,1.762,1.914-0.371c1.215-2.184,5.488-16.223,6.785-16.957c1.461-0.82,2.34,0.266,1.875,1.785    c-0.504,1.66-4.289,16.098-4.289,16.098s-0.395,2.195,0.945,1.606c1.332-0.598,7-18.313,8.316-19.707    c1.273-1.359,2.898-0.387,2.102,1.777c-0.672,1.836-6.297,19.051-6.297,19.051s-0.125,1.133,1.148,0.473    c1.809-0.926,8.984-13.766,11.766-13.594c2.617,0.164-0.32,3.063-0.258,3.394c0.059,0.332-12.316,18.414-12.629,19.379    c-0.305,0.969-1.266,1.707,1.141,1.902c2.418,0.195,9.461-3.113,10.465,0.481c0,0,0.074,0.871-0.422,0.922    c-0.504,0.047-8.852,2.531-10.805,3.094C925.629,820.379,920.754,822.656,919.555,823.07z"></path>			<path style="fill:#2E140F;" d="M1030.551,925.684c-3.793-9.195-9.793-19.918-7.574-31.453    c2.219-11.539,1.133-41.645-10.023-43.805c0,0-5.141-17.102-37.035-4.773c-21.891,8.453-21.43,19.082-18.75,30.824l1.598-1.313    c0,0,0.406-0.074,1.09-0.039l0.891-3.809c0,0,3.988,7.926,35.957,1.121c0,0-1.211,19.731,3.211,28.891    c4.426,9.16,5.055,40.57,0,46.977c-5.059,6.41-9.012,17.152-5.766,22.52c3.234,5.371,21.16-28.641,33.836-26.957l6.074,4.438    C1034.059,948.305,1034.348,934.871,1030.551,925.684z"></path>		</g>		<path style="fill:#3E3E73;" d="M905.367,968.461c0,0,3.09,6.469,3.871,7.445c0.668,0.836,5.863,3.875,8.973,4.672l9.949-3.594   c0.996-0.074,11.914,34.973,13.105,34.027c2.496-1.977,3.422-3.773,3.422-3.773c0.106-0.484-4.91-40.383-4.91-40.383   s-5.359-4.277-10.305-6.219C927.574,959.894,905.367,968.461,905.367,968.461z"></path>		<polygon style="fill:#161642;" points="933.309,975.551 941.266,1011.012 934.855,1008.898 927.555,977.066   "></polygon>		<path style="fill:#F9AC85;" d="M947.625,996.805c6.504,5.137,34.906,21.039,53.004,31.105   c0.156-0.406,13.973-50.926,13.973-50.926l20.793,11.387c-7.766,23.688-14.168,38.734-19.309,48.227l0,0   c-6.156,12.73-9.18,17.258-17.652,14.363c-7.816-2.668-56.231-46.676-56.231-46.676   C940.098,995.66,947.625,996.805,947.625,996.805z"></path>		<path style="fill:#F9AC85;" d="M948.43,999.359c0,0-0.879-13.484-2.965-14.859c-2.078-1.375-3.176-0.629-3.176-0.629   s-3.965,0.629-7.41-2.496c0,0-5.91-3.59-7.254-3.59c-1.336,0-1.633,2.824-1.039,4.605c0,0,0.445,1.223,0.445,2.109   c0,0,0.297,2.449,0.449,3.715c0,0-0.746,2.082-0.449,4.906c0,0,0.758,3.332,1.801,4.52c1.035,1.188,11.457,8.07,15.754,8.539   L948.43,999.359z"></path>		<path style="fill:#585A92;" d="M929.074,959.758c0,0,3.453,0.641,10.703,7.098l-23.309,8.074l-11.102-6.469L929.074,959.758z"></path>		<g>			<g>				<g>					<path style="fill:#D468A8;" d="M1003.84,1007.188l6.891-39.859c0,0,1.914-15.754,16.055-18.211      c12.754-2.227,18.473,14.43,15.27,26.141c-1.457,5.34-0.98,15.457-11.535,35.508      C1030.52,1010.766,1011.547,1017.375,1003.84,1007.188z"></path>				</g>			</g>		</g>	</g>	<g>		<g>			<path style="fill:#E28E68;" d="M1065.738,1031.809l-10.313,39.344c0,0-7.559,26.449,2.348,25.398c0,0,13.758,7.594,24.414-56.895    L1065.738,1031.809z"></path>			<path style="fill:#E28E68;" d="M1069.555,1086.07c0,0-57.25-32.289-67.965-39.809c0,0-8.984-0.469-6.301,8.301    c0,0,55.656,47.945,64.156,48.613C1067.957,1103.828,1071.039,1092.016,1069.555,1086.07z"></path>			<path style="fill:#E28E68;" d="M1003.18,1049.699c0,0-0.906-13.926-3.059-15.348c-2.145-1.414-3.285-0.641-3.285-0.641    s-4.09,0.641-7.656-2.578c0,0-6.121-3.66-7.348,1.148c0,0-0.445,4.605-0.289,5.91c0,0-0.766,2.152-0.461,5.066    c0,0,0.777,3.438,1.856,4.672c1.078,1.223,11.84,8.332,16.281,8.809L1003.18,1049.699z"></path>			<g>				<g>					<g>						<g>							<path style="fill:#061E3C;" d="M1053.434,1061.801l12.848-49.52c0,0,2.938-16.301,17.82-18.027        c13.422-1.559,23.117,18.734,21.422,26.797c-1.184,5.66-13.496,31.148-25.695,51.41        C1079.828,1072.461,1060.855,1072.875,1053.434,1061.801z"></path>						</g>					</g>					<path style="fill:#3E3E73;" d="M1026.469,1036.258c0,0,3.195,6.676,3.996,7.684c0.691,0.863,6.063,4,9.277,4.82l10.258-3.703      c1.039-0.082,12.32,36.109,13.551,35.141c2.566-2.035,3.523-3.902,3.523-3.902c0.117-0.492-5.078-41.699-5.078-41.699      s-5.527-4.418-10.629-6.418C1049.406,1027.41,1026.469,1036.258,1026.469,1036.258z"></path>					<polygon style="fill:#161642;" points="1055.324,1043.574 1063.551,1080.199 1056.93,1078.02 1049.387,1045.137      "></polygon>					<g>						<g>							<g>								<g>									<g>										<polygon style="fill:#140D17;" points="1039.82,1377.383 1031.926,1375.121 1038.711,1369.887 1040.793,1374.594                      "></polygon>										<path style="fill:#2C234A;" d="M1039.859,1375.637l-0.039,1.746l13.445-4.914c0,0,3.066-20.461-1.551-30.945           l-26.219,2.504l-3.84,10.477c0,0-16.152,13.289-27.098,20.148c0,0-7.231,4.16-6.578,9.715c0,0,2.094,10.172,18.648,4.777           c0,0,11.715-4.113,19.961-7.555C1026.59,1381.59,1035.531,1374.965,1039.859,1375.637z"></path>										<path style="fill:#1F1634;" d="M1039.859,1375.637c-4.328-0.672-13.27,5.953-13.27,5.953           c-8.246,3.441-19.961,7.555-19.961,7.555c-16.555,5.395-18.648-4.777-18.648-4.777c-0.148-1.238,0.133-2.394,0.625-3.477           c6.129,8.758,56.238-19.859,48.102-19.859c-4.73,0-11.391-2.719-16.621-5.254c0.996-0.801,1.57-1.273,1.57-1.273           l3.84-10.477l26.219-2.504c4.617,10.484,1.551,30.945,1.551,30.945l-13.445,4.914L1039.859,1375.637z"></path>										<path style="fill:#287998;" d="M1126.941,1163l-72.293,69.582l1.219,114.289c0,0-3.867,12.59-34.766-0.719           c0,0-9.297-78.578-11.754-109.855c-1.664-21.113,62.754-73.629,72.84-87.863           C1095.43,1129.758,1126.941,1163,1126.941,1163z"></path>									</g>									<g>										<polygon style="fill:#140D17;" points="1077.043,1406.215 1069.16,1403.953 1075.949,1398.703 1078.027,1403.418                      "></polygon>										<path style="fill:#2C234A;" d="M1092.352,1404.469l-0.039,1.746l13.457-4.922c0,0,3.047-20.453-1.563-30.938           l-26.211,2.504l-3.848,10.477c0,0-16.148,13.281-27.102,20.129c0,0-7.234,4.184-6.574,9.734           c0,0,2.098,10.164,18.648,4.777c0,0,11.719-4.113,19.969-7.563C1079.09,1410.414,1088.023,1403.797,1092.352,1404.469z"></path>										<path style="fill:#1F1634;" d="M1092.352,1404.469c-4.328-0.672-13.262,5.945-13.262,5.945           c-8.25,3.449-19.969,7.563-19.969,7.563c-16.551,5.387-18.648-4.777-18.648-4.777c-0.148-1.246,0.137-2.406,0.617-3.476           c6.137,8.758,56.238-19.867,48.102-19.867c-4.723,0-11.391-2.699-16.602-5.254c0.988-0.797,1.559-1.266,1.559-1.266           l3.848-10.477l26.211-2.504c4.609,10.484,1.563,30.938,1.563,30.938l-13.457,4.922L1092.352,1404.469z"></path>										<path style="fill:#3986B2;" d="M1110.844,1375.07c0,0-12.832,12.203-37.246,0c0,0-22.672-132.379-21.945-142.078           c1.586-21.078,58.434-72.816,53.961-76.766c-4.473-3.945-14.207-18.828-13.566-26.836           c0.645-8.004,82.574,17.043,82.574,17.043s2.895,3.168-0.117,26.641c-3.223,25.199-74.672,66.25-73.16,68.824           L1110.844,1375.07z"></path>									</g>									<path style="fill:#1A3C6B;" d="M1168.539,1016.816c0,0,2.535-4.492-29.25-18.231c-6.121-2.648-41.609-4.938-55.188-4.332          c-7.977,0.352-20.863,38.887-10.043,82.176c0,0,5.516,46.41,4.074,75.004c0,0,21.109,16.801,53.613,14.606          c0,0,28.43,0.461,44.922-18.106c0,0-13.348-60.598-8.855-76.445C1170.84,1060.824,1181.34,1021.82,1168.539,1016.816z"></path>									<path style="fill:#F9AC85;" d="M1070.113,1065.527c6.715,5.309,36.043,21.727,54.742,32.117          c0.156-0.414,14.434-52.586,14.434-52.586l21.465,11.762c-8.02,24.465-14.625,40.004-19.938,49.809l0,0          c-6.363,13.141-9.48,17.824-18.23,14.828c-8.063-2.754-58.078-48.207-58.078-48.207          C1062.336,1064.348,1070.113,1065.527,1070.113,1065.527z"></path>									<g>										<g>											<path style="fill:#F39A71;" d="M1101.977,992.133c0,0,0.762,10.773-0.125,20.664c0,0,3.992,6.703,7.004,8.035            c0,0,22.109-6.953,30.434-22.246c0,0-6.871-14.086-3.344-38.57l-4.293-1.668L1101.977,992.133z"></path>											<path style="fill:#D27B54;" d="M1139.289,998.586c-2.32,4.266-5.711,7.856-9.406,10.848            c1.785-7.262,1.516-24.109,1.516-24.109c-9.621,9.191-23,14.922-29.121,16.781c-0.301-5.188-0.301-9.973-0.301-9.973            l29.676-33.785l4.293,1.668C1132.418,984.5,1139.289,998.586,1139.289,998.586z"></path>											<path style="fill:#F9AC85;" d="M1083.922,932.707l-1.219,18.984c0,0,1.117,18.363,3.148,26.465            c0,0,3.313,15.387,6.5,18.523c0,0,5.172,2.809,11.738,0.695c4.859-1.566,18.848-7.547,23.719-16.391            c0,0,6.141-12.316,5.777-16.004c0,0,1.754,3.402,3.988-1.199c2.219-4.605,2.664-13.183,1.754-15.719            c-0.922-2.539-4.293-1.199-5.102-1.148c-0.805,0.059-1.965,1.242-2.461,3.883c-0.488,2.633,1.547-17.754-4.258-24.23            C1119.039,917.102,1094.707,914.277,1083.922,932.707z"></path>											<path style="fill:#3B272D;" d="M1132.543,949.344c0,0-0.535,7.047-1.715,7.738c-1.176,0.688-2.91-2.199-2.602-4.16            c0.324-1.973-5.102-8.496-6.473-16.711c0,0-5.434,0.77-13.457,1.914c-8.02,1.156-19.625,3.152-24.641-1.344            c-1.406-1.266-0.723-13.269,2.77-16.258c0,0,13.191-15.605,43.34-11.59c0,0,19.441,1.465,18.113,36.602            c0,0-1.762,10.238-7.5,20.223c0,0-4.707,7.246-4.926,17.219c0,0-2.969-10.629-1.867-17.996c0,0,3.371,6.031,5.859-8.195            c0,0,1.098-9.25-2.258-10.25C1137.188,946.535,1133.645,946.023,1132.543,949.344z"></path>										</g>									</g>								</g>							</g>						</g>					</g>					<g>						<g>							<path style="fill:#2C5484;" d="M1126.137,1077.523l12.848-49.516c0,0,2.934-16.305,17.824-18.031        c13.422-1.547,24.078,18.918,20.047,30.93c-1.836,5.477-12.121,27.016-24.316,47.281        C1152.539,1088.188,1133.566,1088.602,1126.137,1077.523z"></path>						</g>					</g>				</g>			</g>			<g>				<path style="fill:#2A284E;" d="M1077.227,946.598l5.203-4.895c0,0,4.465-1.137,9.375,3.535c0,0,1.684,2.965,10.172,1.082     c7.629-1.691,12.445-0.043,13.461,0.551c0,0,7.566,4.023,4.246,18.375l-3.715,3.488L1077.227,946.598z"></path>				<path style="fill:#2A284E;" d="M1108.297,958.316l-37.129-6.422c0,0-0.5,0.031-0.859,0.309l0,0v0.008     c-0.027,0.016-0.047,0.031-0.078,0.047l-2.574,2.105l2.652,1.641l1.348,11.359c0,0,0.34,0.449,1.094,0.691     c0.5,0.168,20.215,3.629,29.566,5.313l5.762,3.555l2.219-2.129c0.031-0.008,0.605-0.5,0.461-1.727l-1.629-13.91     C1109.129,959.156,1109.191,958.477,1108.297,958.316z"></path>				<path style="fill:#D4D4EA;" d="M1114.848,951.406l-36.852-6.441c0,0-0.492,0.027-0.848,0.313l0,0h-0.008     c-0.02,0.016-0.039,0.039-0.07,0.055l-9.586,8.969l7.008,2.902l5.766,1.563c0,0,0.332,0.449,1.09,0.691     c0.508,0.164,10.895,12.578,20.258,14.262l6.473,3.203l8.867-8.184c0.039-0.012,0.602-0.496,0.457-1.719l-1.73-14.777     C1115.672,952.242,1115.742,951.563,1114.848,951.406z"></path>				<path style="fill:#A1A4C5;" d="M1104.676,975.238l3.402,1.684l8.867-8.184c0.039-0.012,0.602-0.496,0.457-1.719l-1.73-14.777     c0,0,0.016-0.176-0.082-0.375l-10.387,10.336L1104.676,975.238z"></path>				<path style="fill:#3E3E73;" d="M1067.219,955.473l1.688,14.121c0,0,0.332,0.453,1.09,0.695     c0.758,0.242,37.887,6.762,37.887,6.762s0.652-0.141,0.469-1.723l-1.66-13.926c0,0,0.012-0.664-0.875-0.82l-37.406-6.457     C1068.41,954.125,1066.98,954.215,1067.219,955.473z"></path>				<path style="fill:#1E1C4D;" d="M1068.633,956.164l1.559,13.164c0,0,0.313,0.422,1.012,0.648     c0.715,0.223,35.305,6.305,35.305,6.305s0.613-0.137,0.438-1.613l-1.547-12.977c0,0,0.02-0.613-0.809-0.762l-34.855-6.016     C1069.734,954.914,1068.391,954.992,1068.633,956.164z"></path>				<polygon style="fill:#D4D4EA;" points="1119.781,962.465 1117.68,964.109 1116.418,953.504 1118.484,951.59     "></polygon>			</g>			<path style="fill:#0F0E33;" d="M1146.332,927.531c0,0-10.902,13.676-28.836,26.641l0.957,8.297c0,0,20.805-15.281,29.211-27.09    C1147.664,935.379,1147.531,932.266,1146.332,927.531z"></path>		</g>		<path style="fill:#F9AC85;" d="M1070.941,1068.168c0,0-0.906-13.926-3.059-15.348c-2.145-1.414-3.285-0.645-3.285-0.645   s-4.09,0.645-7.648-2.578c0,0-6.109-3.711-7.492-3.711c-1.379,0-1.688,2.91-1.074,4.754c0,0,0.465,1.258,0.465,2.18   c0,0,0.305,2.527,0.465,3.836c0,0-0.766,2.152-0.465,5.059c0,0,0.777,3.453,1.855,4.68c1.07,1.227,11.836,8.328,16.277,8.816   L1070.941,1068.168z"></path>		<path style="fill:#585A92;" d="M1050.953,1027.262c0,0,3.559,0.668,11.043,7.336l-24.07,8.336l-11.457-6.676L1050.953,1027.262z"></path>		<path style="fill:#3E3E73;" d="M960.019,1018.051c0,0,3.191,6.68,3.988,7.688c0.695,0.859,6.059,3.996,9.277,4.82l10.258-3.711   c1.035-0.074,12.309,36.121,13.547,35.141c2.578-2.031,3.527-3.895,3.527-3.895c0.113-0.492-5.074-41.707-5.074-41.707   s-5.527-4.418-10.641-6.418C982.953,1009.199,960.019,1018.051,960.019,1018.051z"></path>		<polygon style="fill:#161642;" points="988.863,1025.367 997.09,1061.988 990.477,1059.809 982.922,1026.934   "></polygon>		<path style="fill:#585A92;" d="M984.496,1009.055c0,0,3.563,0.672,11.047,7.332l-24.07,8.344l-11.453-6.68L984.496,1009.055z"></path>		<path style="fill:#E28E68;" d="M982.922,1030.414c0,0,1.293-0.871,2.035-0.691c0.746,0.184,3.246-0.156,6.941,3.18   c0,0,0.973,0.691,1.559,0.777c0,0,3.168-0.637,4.609-0.156c1.449,0.477,2.145,2.438,2.145,2.438s-5.652,8.895-7.23,7.719   c-1.59-1.18-0.926-3.566-0.926-3.566s-0.293,3.875-2.039,5.52c0,0-0.043,3.625-1.82,4.242l-3.398-2.43L982.922,1030.414z"></path>	</g></g><g style="opacity:0.6;">	<polygon style="fill:#00ADB2;" points="1164.293,1631.371 527.523,1264.578 527.523,688.902 1164.293,1055.711  "></polygon>	<polygon style="opacity:0.5;fill:#00B0D7;" points="704.719,1102.855 562.066,1019.18 562.066,740.039 704.719,823.715  "></polygon>	<polygon style="opacity:0.5;fill:#00B0D7;" points="1093.703,1337.863 951.059,1254.191 951.059,975.043 1093.703,1058.723  "></polygon>	<path style="opacity:0.5;fill:#00B0D7;" d="M756.938,944.762v279.145l142.644,83.672v-279.145L756.938,944.762z M882.66,1264.531  l-108.797-63.82V987.809l108.797,63.816V1264.531z"></path>	<path style="opacity:0.5;fill:#00B0D7;" d="M955.453,1287.852v153.102l142.652,80.57v-153.102L955.453,1287.852z   M1081.184,1497.918l-108.793-69.688v-116.77l108.793,69.688V1497.918z"></path>	<polygon style="opacity:0.5;fill:#00B0D7;" points="704.719,1324.258 562.066,1240.582 562.066,1038.164 704.719,1121.844  "></polygon></g></svg>